<?xml version="1.0" encoding="UTF-8" standalone="no"?>
<svg
   id="TIB_Logo"
   data-name="TIB Logo"
   width="324.11087"
   height="53.046906"
   viewBox="0 0 324.11089 53.046906"
   version="1.1"
   xmlns="http://www.w3.org/2000/svg"
   xmlns:svg="http://www.w3.org/2000/svg">
  <defs
     id="defs303">
    <style
       id="style301">.cls-1{fill:#8499a3;}</style>
  </defs>
  <path
     class="cls-1"
     d="m 36.340812,53.036825 h -2.47 a 2.65,2.65 0 0 1 -2.08,-0.94 2.86,2.86 0 0 1 -0.74,-1.93 V 2.8368248 a 2.81,2.81 0 0 1 0.75,-1.86 2.58,2.58 0 0 1 2.07,-0.94 h 2.47 a 2.56,2.56 0 0 1 2.07,1 2.84,2.84 0 0 1 0.69,1.8 V 50.136825 a 2.92,2.92 0 0 1 -0.69,1.9 2.61,2.61 0 0 1 -2.07,1 z"
     id="path305"
     style="fill:#ffffff;fill-opacity:1" />
  <path
     class="cls-1"
     d="m 15.140812,53.036825 h -2.44 a 2.63,2.63 0 0 1 -2.08,-0.94 2.86,2.86 0 0 1 -0.7399997,-1.93 V 8.0368248 h -7.08 a 2.84,2.84 0 0 1 -1.85999995,-0.72 2.62,2.62 0 0 1 -0.94000000328,-2 v -2.48 a 2.59,2.59 0 0 1 0.99999995328,-2.11 2.92,2.92 0 0 1 1.8,-0.69 H 24.940812 a 3,3 0 0 1 1.89,0.69 2.59,2.59 0 0 1 1,2.11 v 2.46 a 2.64,2.64 0 0 1 -0.93,2.07 2.91,2.91 0 0 1 -2,0.7 h -7 V 50.136825 a 2.92,2.92 0 0 1 -0.66,1.9 2.58,2.58 0 0 1 -2.1,1 z"
     id="path307"
     style="fill:#ffffff;fill-opacity:1" />
  <path
     class="cls-1"
     d="m 58.540812,53.036825 h -10.38 a 2.65,2.65 0 0 1 -2.08,-0.94 2.9,2.9 0 0 1 -0.74,-1.93 V 2.8368248 a 2.59,2.59 0 0 1 1,-2.11 2.89,2.89 0 0 1 1.79,-0.69 h 8.15 a 44.14,44.14 0 0 1 5.39,0.29 11.3,11.3 0 0 1 4.15,1.3 9.94,9.94 0 0 1 4.31,4.87 17,17 0 0 1 1.39,6.8100002 c 0,3.94 -0.41,6.73 -1.26,8.52 a 8.93,8.93 0 0 1 -1.84,2.58 l -0.41,0.36 a 8,8 0 0 1 3.13,3.52 19,19 0 0 1 1.46,8.06 47.46,47.46 0 0 1 -0.37,5.69 13.9,13.9 0 0 1 -1.88,5.44 10.86,10.86 0 0 1 -4.33,4 16,16 0 0 1 -7.48,1.56 z m -5.14,-8 h 4.74 a 11.21,11.21 0 0 0 2.86,-0.37 3.84,3.84 0 0 0 1.83,-1.15 6.07,6.07 0 0 0 1.24,-2.48 20.45,20.45 0 0 0 0.47,-4.81 11.23,11.23 0 0 0 -0.54,-3.78 4.13,4.13 0 0 0 -1.33,-1.93 5.87,5.87 0 0 0 -2.37,-1 20.84,20.84 0 0 0 -3.7,-0.3 h -3.2 z m 0,-23.75 h 3.38 a 26.92,26.92 0 0 0 3,-0.17 4.09,4.09 0 0 0 2,-0.78 4.39,4.39 0 0 0 1.3,-2.07 15.13,15.13 0 0 0 0.54,-4.64 7.55,7.55 0 0 0 -0.53,-3.19 3.65,3.65 0 0 0 -1.32,-1.5400002 5.2,5.2 0 0 0 -2.2,-0.69 c -1,-0.09 -2.14,-0.13 -3.34,-0.13 h -2.83 z"
     id="path309"
     style="fill:#ffffff;fill-opacity:1" />
  <path
     class="cls-1"
     d="m 91.780812,11.786825 a 0.36,0.36 0 0 1 -0.12,0.28 0.44,0.44 0 0 1 -0.29,0.11 h -4.22 a 0.31,0.31 0 0 1 -0.27,-0.13 0.33,0.33 0 0 1 -0.11,-0.28 V 0.6168248 a 0.39,0.39 0 0 1 0.11,-0.27 0.34,0.34 0 0 1 0.27,-0.13 h 0.58 a 0.33,0.33 0 0 1 0.27,0.13 0.45,0.45 0 0 1 0.1,0.27 V 10.826825 h 3.25 a 0.44,0.44 0 0 1 0.29,0.11 0.33,0.33 0 0 1 0.12,0.28 z"
     id="path311"
     style="fill:#ffffff;fill-opacity:1" />
  <path
     class="cls-1"
     d="m 99.070812,11.786825 a 0.35,0.35 0 0 1 -0.14,0.28 0.39,0.39 0 0 1 -0.27,0.11 h -4.46 a 0.29,0.29 0 0 1 -0.27,-0.13 0.33,0.33 0 0 1 -0.11,-0.28 V 0.6168248 a 0.39,0.39 0 0 1 0.11,-0.27 0.34,0.34 0 0 1 0.27,-0.13 h 4.34 a 0.43,0.43 0 0 1 0.28,0.11 0.38,0.38 0 0 1 0.18,0.29 v 0.57 a 0.37,0.37 0 0 1 -0.13,0.28 0.43,0.43 0 0 1 -0.28,0.11 h -3.4 v 3.72 h 2.81 a 0.48,0.48 0 0 1 0.28,0.1 0.36,0.36 0 0 1 0.12,0.29 v 0.58 a 0.31,0.31 0 0 1 -0.12,0.27 0.39,0.39 0 0 1 -0.28,0.12 h -2.9 v 4.1500002 h 3.5 a 0.42,0.42 0 0 1 0.28,0.1 0.32,0.32 0 0 1 0.13,0.28 z"
     id="path313"
     style="fill:#ffffff;fill-opacity:1" />
  <path
     class="cls-1"
     d="m 102.06081,12.216825 a 0.37,0.37 0 0 1 -0.28,-0.13 0.43,0.43 0 0 1 -0.11,-0.28 V 0.6168248 a 0.39,0.39 0 0 1 0.11,-0.27 0.37,0.37 0 0 1 0.28,-0.13 h 0.58 a 0.32,0.32 0 0 1 0.28,0.13 0.45,0.45 0 0 1 0.1,0.27 V 11.766825 a 0.39,0.39 0 0 1 -0.1,0.28 0.32,0.32 0 0 1 -0.28,0.13 z"
     id="path315"
     style="fill:#ffffff;fill-opacity:1" />
  <path
     class="cls-1"
     d="m 108.68081,0.2168248 a 10.19,10.19 0 0 1 1.24,0.07 2.78,2.78 0 0 1 0.89,0.27 2.16,2.16 0 0 1 0.94,1 4.1,4.1 0 0 1 0.25,1.53 4.89,4.89 0 0 1 -0.29,1.89 2,2 0 0 1 -0.38,0.53 2.59,2.59 0 0 1 -0.47,0.32 1.71,1.71 0 0 1 1.14,0.91 4.16,4.16 0 0 1 0.31,1.78 9.74,9.74 0 0 1 -0.08,1.32 3.07,3.07 0 0 1 -0.4,1.1700002 2.22,2.22 0 0 1 -0.92,0.85 3.4,3.4 0 0 1 -1.63,0.32 h -2.45 a 0.36,0.36 0 0 1 -0.29,-0.13 0.39,0.39 0 0 1 -0.11,-0.28 V 0.6168248 a 0.38,0.38 0 0 1 0.13,-0.29 0.4,0.4 0 0 1 0.27,-0.11 z m -1,5 h 1.07 a 4.53,4.53 0 0 0 0.74,0 1.16,1.16 0 0 0 0.6,-0.23 1.26,1.26 0 0 0 0.4,-0.61 3.61,3.61 0 0 0 0.14,-1.18 1.89,1.89 0 0 0 -0.15,-0.87 1,1 0 0 0 -0.42,-0.47 1.41,1.41 0 0 0 -0.63,-0.2 h -1.75 z m 0,1.38 v 4.2300002 h 1.39 a 2.7,2.7 0 0 0 0.75,-0.09 1.1,1.1 0 0 0 0.56,-0.35 1.68,1.68 0 0 0 0.35,-0.6900002 4.84,4.84 0 0 0 0.12,-1.2 2.92,2.92 0 0 0 -0.14,-1 1.15,1.15 0 0 0 -0.4,-0.57 1.65,1.65 0 0 0 -0.69,-0.28 4.87,4.87 0 0 0 -0.93,-0.08 z"
     id="path317"
     style="fill:#ffffff;fill-opacity:1" />
  <path
     class="cls-1"
     d="m 116.07081,2.3168248 0.27,3.57 v 5.8800002 a 0.43,0.43 0 0 1 -0.1,0.28 0.33,0.33 0 0 1 -0.29,0.13 h -0.58 a 0.35,0.35 0 0 1 -0.27,-0.11 0.38,0.38 0 0 1 -0.11,-0.3 V 0.6168248 a 0.33,0.33 0 0 1 0.11,-0.28 0.36,0.36 0 0 1 0.27,-0.12 h 1 a 0.26,0.26 0 0 1 0.26,0.13 1.34,1.34 0 0 1 0.13,0.27 l 3.24,9.4200002 -0.26,-3.4000002 v -6 a 0.48,0.48 0 0 1 0.1,-0.28 0.36,0.36 0 0 1 0.29,-0.13 h 0.58 a 0.39,0.39 0 0 1 0.29,0.11 0.44,0.44 0 0 1 0.11,0.29 V 11.786825 a 0.38,0.38 0 0 1 -0.39,0.39 h -1 a 0.29,0.29 0 0 1 -0.27,-0.13 0.68,0.68 0 0 1 -0.12,-0.26 z"
     id="path319"
     style="fill:#ffffff;fill-opacity:1" />
  <path
     class="cls-1"
     d="m 124.80081,12.216825 a 0.39,0.39 0 0 1 -0.29,-0.13 0.43,0.43 0 0 1 -0.11,-0.28 V 0.6168248 a 0.39,0.39 0 0 1 0.11,-0.27 0.39,0.39 0 0 1 0.29,-0.13 h 0.57 a 0.33,0.33 0 0 1 0.28,0.13 0.4,0.4 0 0 1 0.11,0.27 V 11.766825 a 0.39,0.39 0 0 1 -0.11,0.28 0.31,0.31 0 0 1 -0.28,0.13 z"
     id="path321"
     style="fill:#ffffff;fill-opacity:1" />
  <path
     class="cls-1"
     d="m 128.60081,12.216825 a 0.32,0.32 0 0 1 -0.3,-0.15 0.54,0.54 0 0 1 -0.09,-0.27 v -0.86 a 1,1 0 0 1 0.09,-0.33 3.62,3.62 0 0 1 0.15,-0.36 l 3.85,-8.6700002 h -3.57 a 0.44,0.44 0 0 1 -0.29,-0.11 0.33,0.33 0 0 1 -0.12,-0.28 v -0.57 a 0.34,0.34 0 0 1 0.12,-0.29 0.44,0.44 0 0 1 0.29,-0.11 h 4.63 a 0.36,0.36 0 0 1 0.28,0.13 0.45,0.45 0 0 1 0.12,0.27 v 0.89 a 0.78,0.78 0 0 1 0,0.21 l -0.07,0.16 -4,9.0000002 h 3.95 a 0.39,0.39 0 0 1 0.27,0.11 0.32,0.32 0 0 1 0.13,0.28 v 0.58 a 0.35,0.35 0 0 1 -0.13,0.28 0.39,0.39 0 0 1 -0.27,0.11 z"
     id="path323"
     style="fill:#ffffff;fill-opacity:1" />
  <path
     class="cls-1"
     d="m 136.47081,7.3668248 a 0.38,0.38 0 0 1 -0.27,-0.1 0.34,0.34 0 0 1 -0.13,-0.28 v -0.58 a 0.37,0.37 0 0 1 0.13,-0.28 0.39,0.39 0 0 1 0.27,-0.11 h 3.53 a 0.39,0.39 0 0 1 0.27,0.11 0.35,0.35 0 0 1 0.14,0.28 v 0.63 a 0.35,0.35 0 0 1 -0.14,0.28 0.34,0.34 0 0 1 -0.27,0.1 z"
     id="path325"
     style="fill:#ffffff;fill-opacity:1" />
  <path
     class="cls-1"
     d="m 144.00081,12.216825 a 0.37,0.37 0 0 1 -0.28,-0.13 0.43,0.43 0 0 1 -0.11,-0.28 V 0.6168248 a 0.39,0.39 0 0 1 0.11,-0.27 0.37,0.37 0 0 1 0.28,-0.13 h 0.57 a 0.36,0.36 0 0 1 0.29,0.13 0.46,0.46 0 0 1 0.11,0.27 V 11.766825 a 0.39,0.39 0 0 1 -0.11,0.28 0.33,0.33 0 0 1 -0.29,0.13 z"
     id="path327"
     style="fill:#ffffff;fill-opacity:1" />
  <path
     class="cls-1"
     d="m 149.36081,2.3168248 0.27,3.57 v 5.8800002 a 0.39,0.39 0 0 1 -0.11,0.28 0.33,0.33 0 0 1 -0.29,0.13 h -0.57 a 0.36,0.36 0 0 1 -0.28,-0.11 0.46,0.46 0 0 1 -0.11,-0.3 V 0.6168248 a 0.39,0.39 0 0 1 0.11,-0.28 0.36,0.36 0 0 1 0.28,-0.12 h 1 a 0.29,0.29 0 0 1 0.27,0.13 1.31,1.31 0 0 1 0.12,0.27 l 3.2,9.4600002 -0.25,-3.4000002 v -6 a 0.37,0.37 0 0 1 0.1,-0.28 0.34,0.34 0 0 1 0.28,-0.13 h 0.62 a 0.36,0.36 0 0 1 0.28,0.12 0.36,0.36 0 0 1 0.11,0.29 V 11.786825 a 0.38,0.38 0 0 1 -0.11,0.28 0.37,0.37 0 0 1 -0.28,0.15 h -1 a 0.29,0.29 0 0 1 -0.27,-0.13 0.66,0.66 0 0 1 -0.12,-0.27 z"
     id="path329"
     style="fill:#ffffff;fill-opacity:1" />
  <path
     class="cls-1"
     d="m 162.13081,6.2868248 a 0.37,0.37 0 0 1 -0.13,0.28 0.43,0.43 0 0 1 -0.28,0.11 h -2.93 v 5.0900002 a 0.45,0.45 0 0 1 -0.09,0.28 0.33,0.33 0 0 1 -0.29,0.13 h -0.58 a 0.32,0.32 0 0 1 -0.28,-0.13 0.39,0.39 0 0 1 -0.11,-0.28 V 0.6168248 a 0.39,0.39 0 0 1 0.11,-0.27 0.37,0.37 0 0 1 0.28,-0.13 h 4.33 a 0.44,0.44 0 0 1 0.29,0.11 0.34,0.34 0 0 1 0.12,0.29 v 0.57 a 0.36,0.36 0 0 1 -0.12,0.28 0.44,0.44 0 0 1 -0.29,0.11 h -3.37 v 3.72 h 2.9 a 0.48,0.48 0 0 1 0.28,0.1 0.33,0.33 0 0 1 0.13,0.29 z"
     id="path331"
     style="fill:#ffffff;fill-opacity:1" />
  <path
     class="cls-1"
     d="m 167.43081,12.346825 a 3.2,3.2 0 0 1 -1.52,-0.32 2.33,2.33 0 0 1 -0.89,-0.79 2.85,2.85 0 0 1 -0.4,-1 6.64,6.64 0 0 1 -0.12,-0.8800002 c -0.05,-1.12 -0.08,-2.19 -0.08,-3.21 0,-1.02 0,-2.08 0.08,-3.2 a 6.64,6.64 0 0 1 0.12,-0.88 2.75,2.75 0 0 1 0.4,-0.95 2.35,2.35 0 0 1 0.86,-0.77 3.94,3.94 0 0 1 3.05,0 2.28,2.28 0 0 1 0.89,0.77 2.77,2.77 0 0 1 0.4,1 6.42,6.42 0 0 1 0.12,0.88 c 0,1.1 0.08,2.17 0.08,3.19 0,1.02 0,2.08 -0.08,3.21 a 6.42,6.42 0 0 1 -0.12,0.8800002 2.9,2.9 0 0 1 -0.4,1 2.3,2.3 0 0 1 -0.82,0.76 3.12,3.12 0 0 1 -1.57,0.31 z m 0,-10.9400002 a 1.43,1.43 0 0 0 -0.78,0.19 1.22,1.22 0 0 0 -0.45,0.48 2.34,2.34 0 0 0 -0.23,0.69 c 0,0.25 -0.07,0.51 -0.09,0.77 0,0.93 -0.07,1.81 -0.07,2.65 0,0.84 0,1.73 0.07,2.67 a 7.11,7.11 0 0 0 0.08,0.78 1.94,1.94 0 0 0 0.23,0.6900002 1.2,1.2 0 0 0 0.46,0.49 1.72,1.72 0 0 0 1.56,0 1.17,1.17 0 0 0 0.47,-0.49 1.88,1.88 0 0 0 0.23,-0.6900002 5.14,5.14 0 0 0 0.07,-0.78 c 0,-0.94 0.06,-1.83 0.07,-2.67 0.01,-0.84 0,-1.72 -0.07,-2.65 a 4.9,4.9 0 0 0 -0.08,-0.77 2.34,2.34 0 0 0 -0.23,-0.69 1.25,1.25 0 0 0 -0.46,-0.48 1.43,1.43 0 0 0 -0.78,-0.19 z"
     id="path333"
     style="fill:#ffffff;fill-opacity:1" />
  <path
     class="cls-1"
     d="m 179.05081,11.786825 a 0.36,0.36 0 0 1 0,0.25 0.28,0.28 0 0 1 -0.29,0.14 h -0.69 a 0.42,0.42 0 0 1 -0.27,-0.07 0.68,0.68 0 0 1 -0.18,-0.32 l -1.62,-5.2300002 h -1.51 v 5.2100002 a 0.43,0.43 0 0 1 -0.1,0.27 0.33,0.33 0 0 1 -0.29,0.13 h -0.58 a 0.34,0.34 0 0 1 -0.27,-0.13 0.39,0.39 0 0 1 -0.11,-0.27 V 0.6168248 a 0.35,0.35 0 0 1 0.12,-0.29 0.5,0.5 0 0 1 0.26,-0.11 h 2.08 a 7.32,7.32 0 0 1 1.68,0.17 1.82,1.82 0 0 1 1,0.76 3.18,3.18 0 0 1 0.41,1 6,6 0 0 1 0.11,1.34 4.14,4.14 0 0 1 -0.32,1.84 2.14,2.14 0 0 1 -1.19,1 z m -4.56,-6.5700002 h 1.11 a 5.42,5.42 0 0 0 0.81,0 1.11,1.11 0 0 0 0.55,-0.22 1.67,1.67 0 0 0 0.28,-0.25 1.64,1.64 0 0 0 0.16,-0.29 1.3,1.3 0 0 0 0.09,-0.39 2.72,2.72 0 0 0 0,-0.57 3,3 0 0 0 -0.15,-1.1 1.31,1.31 0 0 0 -0.42,-0.57 1.13,1.13 0 0 0 -0.27,-0.13 1.75,1.75 0 0 0 -0.4,-0.05 h -1.8 z"
     id="path335"
     style="fill:#ffffff;fill-opacity:1" />
  <path
     class="cls-1"
     d="m 182.85081,2.1468248 h -0.06 l 0.21,5.22 v 4.3900002 a 0.43,0.43 0 0 1 -0.11,0.28 0.31,0.31 0 0 1 -0.28,0.13 h -0.56 a 0.39,0.39 0 0 1 -0.3,-0.13 0.43,0.43 0 0 1 -0.11,-0.28 V 0.6168248 a 0.39,0.39 0 0 1 0.11,-0.27 0.39,0.39 0 0 1 0.3,-0.13 h 1.06 a 0.3,0.3 0 0 1 0.27,0.11 0.5,0.5 0 0 1 0.12,0.29 l 1.31,5.42 0.32,1.86 h 0.06 l 0.33,-1.86 1.3,-5.39 c 0.05,-0.25 0.19,-0.37 0.39,-0.37 h 1.08 a 0.32,0.32 0 0 1 0.29,0.13 0.38,0.38 0 0 1 0.11,0.26 V 11.766825 a 0.39,0.39 0 0 1 -0.11,0.28 0.32,0.32 0 0 1 -0.29,0.13 h -0.57 a 0.31,0.31 0 0 1 -0.27,-0.13 0.4,0.4 0 0 1 -0.12,-0.28 V 7.3668248 l 0.2,-5.23 h -0.07 l -1.62,7.39 a 0.79,0.79 0 0 1 -0.12,0.3 0.31,0.31 0 0 1 -0.27,0.1 h -0.57 a 0.27,0.27 0 0 1 -0.25,-0.11 0.61,0.61 0 0 1 -0.14,-0.29 z"
     id="path337"
     style="fill:#ffffff;fill-opacity:1" />
  <path
     class="cls-1"
     d="m 194.56081,0.2168248 c 0.2,0 0.33,0.13 0.39,0.4 l 2.23,11.1700002 a 0.29,0.29 0 0 1 -0.12,0.4 0.28,0.28 0 0 1 -0.22,0 h -0.65 c -0.23,0 -0.37,-0.13 -0.41,-0.4 l -0.42,-2.0000002 h -2.36 l -0.41,2.0000002 c 0,0.27 -0.18,0.4 -0.4,0.4 h -0.69 a 0.3,0.3 0 0 1 -0.33,-0.26 0.33,0.33 0 0 1 0,-0.14 l 2.28,-11.1400002 a 0.57,0.57 0 0 1 0.11,-0.28 0.32,0.32 0 0 1 0.27,-0.11 z m 0.6,8.23 -0.7,-4.2 -0.23,-2.29 h -0.07 l -0.24,2.29 -0.69,4.2 z"
     id="path339"
     style="fill:#ffffff;fill-opacity:1" />
  <path
     class="cls-1"
     d="m 204.15081,1.1868248 a 0.36,0.36 0 0 1 -0.12,0.28 0.44,0.44 0 0 1 -0.29,0.11 h -1.91 V 11.766825 a 0.39,0.39 0 0 1 -0.1,0.28 0.33,0.33 0 0 1 -0.29,0.13 h -0.58 a 0.3,0.3 0 0 1 -0.27,-0.13 0.39,0.39 0 0 1 -0.11,-0.28 V 1.5768248 h -1.95 a 0.39,0.39 0 0 1 -0.27,-0.11 0.33,0.33 0 0 1 -0.12,-0.28 v -0.57 a 0.34,0.34 0 0 1 0.12,-0.29 0.39,0.39 0 0 1 0.27,-0.11 h 5.23 a 0.44,0.44 0 0 1 0.29,0.11 0.34,0.34 0 0 1 0.12,0.29 z"
     id="path341"
     style="fill:#ffffff;fill-opacity:1" />
  <path
     class="cls-1"
     d="m 206.91081,12.216825 a 0.37,0.37 0 0 1 -0.28,-0.13 0.43,0.43 0 0 1 -0.11,-0.28 V 0.6168248 a 0.39,0.39 0 0 1 0.11,-0.27 0.37,0.37 0 0 1 0.28,-0.13 h 0.57 a 0.37,0.37 0 0 1 0.3,0.13 0.44,0.44 0 0 1 0.09,0.27 V 11.766825 a 0.39,0.39 0 0 1 -0.09,0.28 0.34,0.34 0 0 1 -0.3,0.13 z"
     id="path343"
     style="fill:#ffffff;fill-opacity:1" />
  <path
     class="cls-1"
     d="m 213.81081,12.346825 a 3.2,3.2 0 0 1 -1.52,-0.32 2.25,2.25 0 0 1 -0.86,-0.79 2.66,2.66 0 0 1 -0.4,-1 4.43,4.43 0 0 1 -0.12,-0.8800002 q -0.09,-1.68 -0.09,-3.21 c 0,-1 0,-2.08 0.09,-3.2 a 4.43,4.43 0 0 1 0.12,-0.88 2.73,2.73 0 0 1 0.4,-1 2.25,2.25 0 0 1 0.86,-0.76 3.82,3.82 0 0 1 3,0 2.39,2.39 0 0 1 0.89,0.78 2.75,2.75 0 0 1 0.39,1 6.42,6.42 0 0 1 0.12,0.88 c 0.06,1.1 0.09,2.17 0.09,3.19 0,1.02 0,2.08 -0.09,3.21 a 6.42,6.42 0 0 1 -0.12,0.8800002 2.88,2.88 0 0 1 -0.39,1 2.44,2.44 0 0 1 -0.88,0.78 3,3 0 0 1 -1.49,0.32 z m 0,-10.9400002 a 1.43,1.43 0 0 0 -0.78,0.19 1.16,1.16 0 0 0 -0.45,0.48 1.88,1.88 0 0 0 -0.23,0.69 3.94,3.94 0 0 0 -0.08,0.77 c -0.06,0.93 -0.09,1.81 -0.07,2.65 0.02,0.84 0,1.73 0.07,2.67 a 5.14,5.14 0 0 0 0.07,0.78 2.14,2.14 0 0 0 0.22,0.6900002 1.38,1.38 0 0 0 0.47,0.49 1.43,1.43 0 0 0 0.78,0.19 1.5,1.5 0 0 0 0.78,-0.19 1.3,1.3 0 0 0 0.47,-0.49 2.16,2.16 0 0 0 0.23,-0.6900002 c 0,-0.27 0.06,-0.52 0.07,-0.78 0,-0.94 0.06,-1.83 0.07,-2.67 0.01,-0.84 0,-1.72 -0.07,-2.65 a 6.48,6.48 0 0 0 -0.08,-0.77 2.34,2.34 0 0 0 -0.23,-0.69 1.32,1.32 0 0 0 -0.46,-0.48 1.5,1.5 0 0 0 -0.78,-0.19 z"
     id="path345"
     style="fill:#ffffff;fill-opacity:1" />
  <path
     class="cls-1"
     d="m 220.59081,2.3168248 0.28,3.57 v 5.8800002 a 0.45,0.45 0 0 1 -0.1,0.28 0.33,0.33 0 0 1 -0.29,0.13 h -0.58 a 0.37,0.37 0 0 1 -0.28,-0.11 0.42,0.42 0 0 1 -0.1,-0.3 V 0.6168248 a 0.4,0.4 0 0 1 0.1,-0.28 0.38,0.38 0 0 1 0.28,-0.12 h 1 a 0.26,0.26 0 0 1 0.26,0.13 2.24,2.24 0 0 1 0.13,0.27 l 3.23,9.4200002 -0.28,-3.4000002 v -6 a 0.48,0.48 0 0 1 0.1,-0.28 0.36,0.36 0 0 1 0.29,-0.13 h 0.58 a 0.36,0.36 0 0 1 0.28,0.12 0.44,0.44 0 0 1 0.11,0.29 V 11.786825 a 0.43,0.43 0 0 1 -0.11,0.28 0.37,0.37 0 0 1 -0.28,0.15 h -1 a 0.3,0.3 0 0 1 -0.27,-0.13 1.11,1.11 0 0 1 -0.12,-0.27 z"
     id="path347"
     style="fill:#ffffff;fill-opacity:1" />
  <path
     class="cls-1"
     d="m 234.00081,8.8768248 a 3.68,3.68 0 0 1 -0.79,2.6000002 2.88,2.88 0 0 1 -2.24,0.87 3.14,3.14 0 0 1 -1.47,-0.31 2.56,2.56 0 0 1 -0.93,-0.8 3.39,3.39 0 0 1 -0.47,-1.17 6.49,6.49 0 0 1 -0.1,-1.3900002 v -0.16 a 0.35,0.35 0 0 1 0.1,-0.28 0.34,0.34 0 0 1 0.28,-0.11 h 0.6 a 0.32,0.32 0 0 1 0.27,0.11 0.35,0.35 0 0 1 0.1,0.28 v 0.18 a 3.87,3.87 0 0 0 0.14,1.12 1.83,1.83 0 0 0 0.36,0.6900002 1.34,1.34 0 0 0 0.53,0.37 1.92,1.92 0 0 0 0.63,0.09 1.67,1.67 0 0 0 1.21,-0.44 2.13,2.13 0 0 0 0.47,-1.5700002 1.78,1.78 0 0 0 -0.33,-1.09 4.13,4.13 0 0 0 -0.83,-0.84 c -0.34,-0.26 -0.7,-0.52 -1.09,-0.78 a 7.21,7.21 0 0 1 -1.08,-0.83 4.07,4.07 0 0 1 -0.84,-1.09 3.17,3.17 0 0 1 -0.33,-1.48 3.13,3.13 0 0 1 0.18,-1 2.49,2.49 0 0 1 0.53,-0.9 2.44,2.44 0 0 1 0.87,-0.62 3.47,3.47 0 0 1 2.43,0 2.6,2.6 0 0 1 0.86,0.61 2.79,2.79 0 0 1 0.53,0.87 2.85,2.85 0 0 1 0.18,1 v 0.12 a 0.38,0.38 0 0 1 -0.37,0.39 h -0.58 a 0.32,0.32 0 0 1 -0.28,-0.13 0.36,0.36 0 0 1 -0.11,-0.26 v 0 a 1.45,1.45 0 0 0 -0.38,-1 1.31,1.31 0 0 0 -1,-0.4 1.48,1.48 0 0 0 -0.69,0.11 1.25,1.25 0 0 0 -0.7,0.79 1.93,1.93 0 0 0 -0.07,0.53 1.83,1.83 0 0 0 0.3,1 4.94,4.94 0 0 0 0.87,0.84 c 0.34,0.28 0.7,0.54 1.08,0.8 a 8.17,8.17 0 0 1 1.09,0.85 4.27,4.27 0 0 1 0.84,1.06 2.86,2.86 0 0 1 0.23,1.37 z"
     id="path349"
     style="fill:#ffffff;fill-opacity:1" />
  <path
     class="cls-1"
     d="m 236.00081,12.216825 a 0.32,0.32 0 0 1 -0.3,-0.15 0.54,0.54 0 0 1 -0.09,-0.27 v -0.86 a 1,1 0 0 1 0.09,-0.33 2.75,2.75 0 0 1 0.15,-0.36 l 3.85,-8.6700002 h -3.58 a 0.43,0.43 0 0 1 -0.28,-0.11 0.37,0.37 0 0 1 -0.13,-0.28 v -0.57 a 0.31,0.31 0 0 1 0.13,-0.29 0.43,0.43 0 0 1 0.28,-0.11 h 4.64 a 0.37,0.37 0 0 1 0.28,0.13 0.39,0.39 0 0 1 0.11,0.27 v 0.89 a 0.52,0.52 0 0 1 0,0.21 l -0.06,0.16 -4,9.0000002 h 4 a 0.43,0.43 0 0 1 0.28,0.11 0.31,0.31 0 0 1 0.13,0.28 v 0.58 a 0.37,0.37 0 0 1 -0.13,0.28 0.43,0.43 0 0 1 -0.28,0.11 z"
     id="path351"
     style="fill:#ffffff;fill-opacity:1" />
  <path
     class="cls-1"
     d="m 248.88081,11.786825 a 0.33,0.33 0 0 1 -0.12,0.28 0.43,0.43 0 0 1 -0.28,0.11 h -4.48 a 0.34,0.34 0 0 1 -0.28,-0.13 0.39,0.39 0 0 1 -0.11,-0.28 V 0.6168248 a 0.44,0.44 0 0 1 0.11,-0.27 0.37,0.37 0 0 1 0.28,-0.13 h 4.34 a 0.43,0.43 0 0 1 0.28,0.11 0.36,0.36 0 0 1 0.13,0.29 v 0.57 a 0.37,0.37 0 0 1 -0.13,0.28 0.43,0.43 0 0 1 -0.28,0.11 h -3.34 v 3.72 h 2.89 a 0.45,0.45 0 0 1 0.28,0.1 0.37,0.37 0 0 1 0.13,0.29 v 0.58 a 0.32,0.32 0 0 1 -0.13,0.27 0.36,0.36 0 0 1 -0.28,0.12 h -2.89 v 4.1500002 h 3.46 a 0.42,0.42 0 0 1 0.28,0.1 0.34,0.34 0 0 1 0.13,0.28 z"
     id="path353"
     style="fill:#ffffff;fill-opacity:1" />
  <path
     class="cls-1"
     d="m 252.37081,2.3168248 0.28,3.57 v 5.8800002 a 0.46,0.46 0 0 1 -0.11,0.28 0.32,0.32 0 0 1 -0.29,0.13 h -0.57 a 0.39,0.39 0 0 1 -0.28,-0.11 0.48,0.48 0 0 1 -0.11,-0.3 V 0.6168248 a 0.41,0.41 0 0 1 0.11,-0.28 0.36,0.36 0 0 1 0.28,-0.12 h 1 a 0.28,0.28 0 0 1 0.26,0.13 1.31,1.31 0 0 1 0.12,0.27 l 3.21,9.4200002 -0.27,-3.3600002 v -6 a 0.47,0.47 0 0 1 0.09,-0.28 0.36,0.36 0 0 1 0.29,-0.13 h 0.62 a 0.36,0.36 0 0 1 0.28,0.12 0.44,0.44 0 0 1 0.11,0.29 V 11.786825 a 0.43,0.43 0 0 1 -0.11,0.28 0.39,0.39 0 0 1 -0.28,0.11 h -1 a 0.29,0.29 0 0 1 -0.27,-0.13 1.23,1.23 0 0 1 -0.12,-0.26 z"
     id="path355"
     style="fill:#ffffff;fill-opacity:1" />
  <path
     class="cls-1"
     d="m 265.54081,1.1868248 a 0.37,0.37 0 0 1 -0.13,0.28 0.43,0.43 0 0 1 -0.28,0.11 h -1.92 V 11.766825 a 0.39,0.39 0 0 1 -0.1,0.28 0.32,0.32 0 0 1 -0.29,0.13 h -0.57 a 0.32,0.32 0 0 1 -0.25,-0.14 0.39,0.39 0 0 1 -0.11,-0.28 V 1.5768248 h -1.95 a 0.36,0.36 0 0 1 -0.26,-0.11 0.37,0.37 0 0 1 -0.13,-0.28 v -0.57 a 0.32,0.32 0 0 1 0.13,-0.29 0.36,0.36 0 0 1 0.26,-0.11 h 5.22 a 0.43,0.43 0 0 1 0.28,0.11 0.36,0.36 0 0 1 0.13,0.29 z"
     id="path357"
     style="fill:#ffffff;fill-opacity:1" />
  <path
     class="cls-1"
     d="m 273.60081,11.786825 a 0.32,0.32 0 0 1 0,0.25 0.27,0.27 0 0 1 -0.28,0.14 h -0.69 a 0.42,0.42 0 0 1 -0.27,-0.07 0.59,0.59 0 0 1 -0.17,-0.32 l -1.61,-5.2300002 h -1.58 v 5.2100002 a 0.45,0.45 0 0 1 -0.1,0.27 0.32,0.32 0 0 1 -0.29,0.13 h -0.54 a 0.37,0.37 0 0 1 -0.28,-0.13 0.38,0.38 0 0 1 -0.1,-0.27 V 0.6168248 a 0.35,0.35 0 0 1 0.12,-0.29 0.5,0.5 0 0 1 0.26,-0.11 h 2.08 a 7.4,7.4 0 0 1 1.69,0.17 1.75,1.75 0 0 1 1,0.76 2.89,2.89 0 0 1 0.42,1 6,6 0 0 1 0.12,1.33 4,4 0 0 1 -0.33,1.85 2.14,2.14 0 0 1 -1.19,1 z m -4.6,-6.5700002 h 1.14 a 5.29,5.29 0 0 0 0.8,0 1.18,1.18 0 0 0 0.56,-0.22 1.24,1.24 0 0 0 0.26,-0.25 1.05,1.05 0 0 0 0.17,-0.29 1.72,1.72 0 0 0 0.1,-0.39 5.42,5.42 0 0 0 0,-0.57 3.44,3.44 0 0 0 -0.15,-1.1 1.35,1.35 0 0 0 -0.43,-0.57 1.66,1.66 0 0 0 -0.27,-0.13 1.74,1.74 0 0 0 -0.39,-0.05 h -1.79 z"
     id="path359"
     style="fill:#ffffff;fill-opacity:1" />
  <path
     class="cls-1"
     d="m 277.29081,8.9768248 a 4.74,4.74 0 0 0 0.06,0.75 1.87,1.87 0 0 0 0.22,0.6400002 1.32,1.32 0 0 0 0.48,0.46 2.1,2.1 0 0 0 1.63,0 1.3,1.3 0 0 0 0.47,-0.46 1.66,1.66 0 0 0 0.22,-0.6600002 6,6 0 0 0 0.06,-0.74 v -8.35 a 0.42,0.42 0 0 1 0.09,-0.29 0.44,0.44 0 0 1 0.29,-0.11 h 0.58 a 0.38,0.38 0 0 1 0.39,0.37 v 8.92 a 6.11,6.11 0 0 1 -0.09,0.8600002 2.25,2.25 0 0 1 -0.39,0.93 2.42,2.42 0 0 1 -0.91,0.74 3.59,3.59 0 0 1 -1.61,0.31 3.08,3.08 0 0 1 -1.49,-0.31 2.28,2.28 0 0 1 -0.88,-0.72 2.37,2.37 0 0 1 -0.41,-0.88 5.18,5.18 0 0 1 -0.09,-0.7800002 v -9 a 0.44,0.44 0 0 1 0.09,-0.33 0.41,0.41 0 0 1 0.28,-0.11 h 0.58 a 0.43,0.43 0 0 1 0.28,0.11 0.36,0.36 0 0 1 0.11,0.29 z"
     id="path361"
     style="fill:#ffffff;fill-opacity:1" />
  <path
     class="cls-1"
     d="m 286.00081,2.1468248 h -0.06 l 0.19,5.22 v 4.3900002 a 0.42,0.42 0 0 1 -0.1,0.28 0.33,0.33 0 0 1 -0.29,0.13 h -0.56 a 0.36,0.36 0 0 1 -0.29,-0.13 0.35,0.35 0 0 1 -0.11,-0.28 V 0.6168248 a 0.39,0.39 0 0 1 0.11,-0.27 0.36,0.36 0 0 1 0.29,-0.13 h 1.07 a 0.32,0.32 0 0 1 0.27,0.11 0.69,0.69 0 0 1 0.12,0.29 l 1.27,5.42 0.32,1.86 h 0.07 l 0.32,-1.86 1.3,-5.39 c 0.06,-0.25 0.19,-0.37 0.4,-0.37 h 1.08 a 0.33,0.33 0 0 1 0.29,0.13 0.42,0.42 0 0 1 0.1,0.26 V 11.766825 a 0.39,0.39 0 0 1 -0.1,0.28 0.33,0.33 0 0 1 -0.29,0.13 h -0.58 a 0.34,0.34 0 0 1 -0.27,-0.13 0.36,0.36 0 0 1 -0.11,-0.28 V 7.3668248 l 0.2,-5.23 h -0.07 l -1.63,7.39 a 0.56,0.56 0 0 1 -0.12,0.3 0.29,0.29 0 0 1 -0.27,0.1 h -0.55 a 0.27,0.27 0 0 1 -0.25,-0.11 0.65,0.65 0 0 1 -0.14,-0.29 z"
     id="path363"
     style="fill:#ffffff;fill-opacity:1" />
  <path
     class="cls-1"
     d="m 91.820812,21.516825 a 0.33,0.33 0 0 1 -0.14,0.27 0.39,0.39 0 0 1 -0.27,0.11 h -1.92 v 10.2 a 0.42,0.42 0 0 1 -0.1,0.28 0.32,0.32 0 0 1 -0.29,0.13 h -0.57 a 0.36,0.36 0 0 1 -0.28,-0.13 0.43,0.43 0 0 1 -0.11,-0.28 v -10.2 h -2 a 0.36,0.36 0 0 1 -0.26,-0.11 0.37,0.37 0 0 1 -0.13,-0.27 v -0.58 a 0.36,0.36 0 0 1 0.13,-0.29 0.4,0.4 0 0 1 0.26,-0.1 h 5.22 a 0.38,0.38 0 0 1 0.27,0.1 0.37,0.37 0 0 1 0.14,0.29 z"
     id="path365"
     style="fill:#ffffff;fill-opacity:1" />
  <path
     class="cls-1"
     d="m 99.220812,32.116825 a 0.37,0.37 0 0 1 -0.13,0.28 0.43,0.43 0 0 1 -0.28,0.11 h -4.46 a 0.35,0.35 0 0 1 -0.27,-0.13 0.43,0.43 0 0 1 -0.11,-0.28 v -11.16 a 0.36,0.36 0 0 1 0.11,-0.26 0.3,0.3 0 0 1 0.27,-0.13 h 4.34 a 0.42,0.42 0 0 1 0.28,0.1 0.33,0.33 0 0 1 0.13,0.29 v 0.58 a 0.32,0.32 0 0 1 -0.13,0.27 0.39,0.39 0 0 1 -0.28,0.11 h -3.37 v 3.75 h 2.9 a 0.42,0.42 0 0 1 0.28,0.1 0.34,0.34 0 0 1 0.1,0.3 v 0.59 a 0.33,0.33 0 0 1 -0.12,0.27 0.44,0.44 0 0 1 -0.29,0.11 h -2.89 v 4.15 h 3.46 a 0.43,0.43 0 0 1 0.28,0.11 0.31,0.31 0 0 1 0.13,0.28 z"
     id="path367"
     style="fill:#ffffff;fill-opacity:1" />
  <path
     class="cls-1"
     d="m 107.00081,23.626825 a 0.41,0.41 0 0 1 -0.09,0.28 0.38,0.38 0 0 1 -0.3,0.11 h -0.57 a 0.33,0.33 0 0 1 -0.28,-0.11 0.39,0.39 0 0 1 -0.11,-0.28 v -0.23 a 2.4,2.4 0 0 0 -0.07,-0.6 1.81,1.81 0 0 0 -0.22,-0.54 1.21,1.21 0 0 0 -0.43,-0.38 1.36,1.36 0 0 0 -0.65,-0.14 1.61,1.61 0 0 0 -0.81,0.16 1.24,1.24 0 0 0 -0.46,0.45 1.69,1.69 0 0 0 -0.23,0.65 5,5 0 0 0 -0.07,0.76 c 0,0.52 -0.07,1 -0.09,1.44 v 2.59 c 0,0.44 0,0.89 0.08,1.38 a 6.87,6.87 0 0 0 0.08,0.78 2.18,2.18 0 0 0 0.24,0.69 1.33,1.33 0 0 0 0.47,0.5 1.41,1.41 0 0 0 0.81,0.19 1.38,1.38 0 0 0 0.69,-0.16 1.24,1.24 0 0 0 0.45,-0.46 2.14,2.14 0 0 0 0.25,-0.65 3.81,3.81 0 0 0 0.07,-0.75 v -0.62 a 0.48,0.48 0 0 1 0.1,-0.28 0.44,0.44 0 0 1 0.29,-0.11 h 0.58 a 0.38,0.38 0 0 1 0.39,0.39 v 1.16 a 4.05,4.05 0 0 1 -0.12,0.85 2.68,2.68 0 0 1 -0.43,0.92 2.42,2.42 0 0 1 -0.9,0.75 3.15,3.15 0 0 1 -1.48,0.31 2.9,2.9 0 0 1 -1.48,-0.33 2.59,2.59 0 0 1 -0.85,-0.76 3,3 0 0 1 -0.39,-0.94 5.52,5.52 0 0 1 -0.12,-0.8 c -0.05,-0.59 -0.08,-1.14 -0.1,-1.68 -0.02,-0.54 0,-1.06 0,-1.6 v -1.59 c 0,-0.54 0,-1.09 0.09,-1.66 a 5.18,5.18 0 0 1 0.11,-0.87 2.52,2.52 0 0 1 1.3,-1.73 3.6,3.6 0 0 1 1.62,-0.31 2.56,2.56 0 0 1 1.38,0.3 2.45,2.45 0 0 1 0.81,0.69 2.69,2.69 0 0 1 0.39,0.88 3.31,3.31 0 0 1 0.09,0.77 z"
     id="path369"
     style="fill:#ffffff;fill-opacity:1" />
  <path
     class="cls-1"
     d="m 114.41081,32.506825 a 0.37,0.37 0 0 1 -0.28,-0.13 0.43,0.43 0 0 1 -0.11,-0.28 v -5.06 h -3.13 v 5.1 a 0.48,0.48 0 0 1 -0.1,0.28 0.33,0.33 0 0 1 -0.29,0.13 h -0.58 a 0.37,0.37 0 0 1 -0.28,-0.13 0.43,0.43 0 0 1 -0.11,-0.28 v -11.2 a 0.36,0.36 0 0 1 0.11,-0.26 0.32,0.32 0 0 1 0.28,-0.13 h 0.58 a 0.33,0.33 0 0 1 0.29,0.13 0.4,0.4 0 0 1 0.1,0.26 v 4.71 h 3.11 v -4.71 a 0.36,0.36 0 0 1 0.11,-0.26 0.32,0.32 0 0 1 0.28,-0.13 h 0.61 a 0.33,0.33 0 0 1 0.29,0.13 0.41,0.41 0 0 1 0.09,0.26 v 11.16 a 0.47,0.47 0 0 1 -0.09,0.28 0.33,0.33 0 0 1 -0.29,0.13 z"
     id="path371"
     style="fill:#ffffff;fill-opacity:1" />
  <path
     class="cls-1"
     d="m 119.58081,22.646825 0.27,3.57 v 5.88 a 0.48,0.48 0 0 1 -0.1,0.28 0.34,0.34 0 0 1 -0.3,0.13 h -0.57 a 0.38,0.38 0 0 1 -0.28,-0.12 0.44,0.44 0 0 1 -0.11,-0.29 v -11.16 a 0.39,0.39 0 0 1 0.11,-0.27 0.38,0.38 0 0 1 0.28,-0.12 h 1 a 0.27,0.27 0 0 1 0.26,0.13 1.23,1.23 0 0 1 0.12,0.26 l 3.23,9.47 -0.24,-3.37 v -6 a 0.41,0.41 0 0 1 0.11,-0.28 0.31,0.31 0 0 1 0.28,-0.13 h 0.56 a 0.36,0.36 0 0 1 0.28,0.12 0.38,0.38 0 0 1 0.12,0.29 v 11.08 a 0.36,0.36 0 0 1 -0.12,0.27 0.36,0.36 0 0 1 -0.28,0.12 h -1 a 0.3,0.3 0 0 1 -0.27,-0.13 0.85,0.85 0 0 1 -0.11,-0.26 z"
     id="path373"
     style="fill:#ffffff;fill-opacity:1" />
  <path
     class="cls-1"
     d="m 128.30081,32.506825 a 0.37,0.37 0 0 1 -0.28,-0.13 0.43,0.43 0 0 1 -0.11,-0.28 v -11.16 a 0.36,0.36 0 0 1 0.11,-0.26 0.34,0.34 0 0 1 0.28,-0.13 h 0.58 a 0.32,0.32 0 0 1 0.28,0.13 0.35,0.35 0 0 1 0.1,0.26 v 11.16 a 0.37,0.37 0 0 1 -0.1,0.28 0.32,0.32 0 0 1 -0.28,0.13 z"
     id="path375"
     style="fill:#ffffff;fill-opacity:1" />
  <path
     class="cls-1"
     d="m 138.56081,32.116825 a 0.26,0.26 0 0 1 0,0.27 0.27,0.27 0 0 1 -0.24,0.12 h -0.77 a 0.35,0.35 0 0 1 -0.29,-0.12 2.4,2.4 0 0 1 -0.16,-0.27 l -2.31,-5.51 -0.79,1.43 v 4 a 0.39,0.39 0 0 1 -0.12,0.28 0.39,0.39 0 0 1 -0.27,0.11 h -0.61 a 0.41,0.41 0 0 1 -0.4,-0.39 v -11.1 a 0.41,0.41 0 0 1 0.4,-0.39 h 0.57 a 0.41,0.41 0 0 1 0.39,0.39 v 4.84 l 2.9,-5 a 1.66,1.66 0 0 1 0.16,-0.21 0.45,0.45 0 0 1 0.27,-0.08 h 0.89 a 0.31,0.31 0 0 1 0.16,0.06 0.13,0.13 0 0 1 0.07,0.13 0.39,0.39 0 0 1 0,0.21 l -2.63,4.43 z"
     id="path377"
     style="fill:#ffffff;fill-opacity:1" />
  <path
     class="cls-1"
     d="m 146.37081,29.306825 a 3.64,3.64 0 0 0 0.07,0.74 1.85,1.85 0 0 0 0.22,0.65 1.22,1.22 0 0 0 0.48,0.45 1.74,1.74 0 0 0 0.81,0.17 1.62,1.62 0 0 0 0.81,-0.17 1.16,1.16 0 0 0 0.48,-0.45 1.85,1.85 0 0 0 0.22,-0.65 6.47,6.47 0 0 0 0,-0.76 v -8.35 a 0.37,0.37 0 0 1 0.1,-0.28 0.36,0.36 0 0 1 0.29,-0.11 h 0.59 a 0.43,0.43 0 0 1 0.28,0.11 0.41,0.41 0 0 1 0.11,0.28 v 8.89 a 6.4,6.4 0 0 1 -0.08,0.87 2.39,2.39 0 0 1 -0.41,0.92 2.34,2.34 0 0 1 -0.9,0.75 3.59,3.59 0 0 1 -1.61,0.31 3.08,3.08 0 0 1 -1.49,-0.31 2.45,2.45 0 0 1 -0.87,-0.73 2.36,2.36 0 0 1 -0.39,-0.87 4.17,4.17 0 0 1 -0.1,-0.79 v -9 a 0.37,0.37 0 0 1 0.34,-0.39 h 0.68 a 0.43,0.43 0 0 1 0.28,0.11 0.41,0.41 0 0 1 0.11,0.28 z"
     id="path379"
     style="fill:#ffffff;fill-opacity:1" />
  <path
     class="cls-1"
     d="m 154.86081,22.646825 0.27,3.57 v 5.88 a 0.42,0.42 0 0 1 -0.1,0.28 0.33,0.33 0 0 1 -0.29,0.13 h -0.58 a 0.39,0.39 0 0 1 -0.38,-0.41 v -11.16 a 0.39,0.39 0 0 1 0.11,-0.27 0.36,0.36 0 0 1 0.27,-0.12 h 1 a 0.26,0.26 0 0 1 0.26,0.13 0.91,0.91 0 0 1 0.13,0.26 l 3.22,9.47 -0.23,-3.37 v -6 a 0.4,0.4 0 0 1 0.1,-0.28 0.32,0.32 0 0 1 0.28,-0.13 h 0.56 a 0.36,0.36 0 0 1 0.28,0.12 0.42,0.42 0 0 1 0.11,0.29 v 11.08 a 0.39,0.39 0 0 1 -0.11,0.27 0.36,0.36 0 0 1 -0.28,0.12 h -1 a 0.29,0.29 0 0 1 -0.27,-0.13 0.91,0.91 0 0 1 -0.13,-0.26 z"
     id="path381"
     style="fill:#ffffff;fill-opacity:1" />
  <path
     class="cls-1"
     d="m 162.94081,20.936825 a 0.47,0.47 0 0 1 0.11,-0.26 0.33,0.33 0 0 1 0.29,-0.13 h 2.66 a 3.28,3.28 0 0 1 1.48,0.28 2.23,2.23 0 0 1 0.83,0.69 2.55,2.55 0 0 1 0.4,0.85 c 0.06,0.31 0.12,0.56 0.14,0.78 a 23.21,23.21 0 0 1 0.24,3.33 c 0,1.1 -0.08,2.22 -0.19,3.36 0,0.28 -0.08,0.56 -0.14,0.84 a 2.4,2.4 0 0 1 -0.41,0.87 2.34,2.34 0 0 1 -0.9,0.69 3.7,3.7 0 0 1 -1.61,0.28 h -2.45 a 0.33,0.33 0 0 1 -0.29,-0.13 0.5,0.5 0 0 1 -0.11,-0.27 z m 1.39,10.21 h 1.6 a 1.84,1.84 0 0 0 0.8,-0.15 1.17,1.17 0 0 0 0.46,-0.42 1.72,1.72 0 0 0 0.23,-0.62 c 0,-0.23 0.08,-0.48 0.11,-0.74 a 21.28,21.28 0 0 0 0.15,-2.76 24.78,24.78 0 0 0 -0.18,-2.68 c 0,-0.25 -0.07,-0.49 -0.11,-0.69 a 1.79,1.79 0 0 0 -0.23,-0.61 1.24,1.24 0 0 0 -0.46,-0.42 1.81,1.81 0 0 0 -0.8,-0.15 h -1.57 z"
     id="path383"
     style="fill:#ffffff;fill-opacity:1" />
  <path
     class="cls-1"
     d="m 177.10081,22.646825 0.28,3.57 v 5.88 a 0.43,0.43 0 0 1 -0.11,0.28 0.33,0.33 0 0 1 -0.29,0.13 h -0.57 a 0.36,0.36 0 0 1 -0.28,-0.12 0.44,0.44 0 0 1 -0.11,-0.29 v -11.16 a 0.39,0.39 0 0 1 0.11,-0.27 0.36,0.36 0 0 1 0.28,-0.12 h 1 a 0.29,0.29 0 0 1 0.27,0.13 1.23,1.23 0 0 1 0.12,0.26 l 3.2,9.47 -0.26,-3.37 v -6 a 0.41,0.41 0 0 1 0.11,-0.28 0.31,0.31 0 0 1 0.28,-0.13 h 0.58 a 0.38,0.38 0 0 1 0.28,0.12 0.44,0.44 0 0 1 0.11,0.29 v 11.08 a 0.39,0.39 0 0 1 -0.11,0.27 0.38,0.38 0 0 1 -0.28,0.12 h -1 a 0.31,0.31 0 0 1 -0.28,-0.13 0.68,0.68 0 0 1 -0.12,-0.26 z"
     id="path385"
     style="fill:#ffffff;fill-opacity:1" />
  <path
     class="cls-1"
     d="m 187.93081,20.516825 c 0.2,0 0.33,0.13 0.38,0.39 l 2.24,11.18 a 0.3,0.3 0 0 1 -0.32,0.39 h -0.66 c -0.23,0 -0.36,-0.13 -0.41,-0.39 l -0.42,-2 h -2.32 l -0.41,2 c 0,0.26 -0.18,0.39 -0.41,0.39 h -0.66 a 0.32,0.32 0 0 1 -0.27,-0.11 0.39,0.39 0 0 1 0,-0.28 l 2.24,-11.18 a 0.77,0.77 0 0 1 0.12,-0.28 0.32,0.32 0 0 1 0.27,-0.11 z m 0.59,8.23 -0.69,-4.2 -0.24,-2.29 h -0.07 l -0.23,2.29 -0.69,4.2 z"
     id="path387"
     style="fill:#ffffff;fill-opacity:1" />
  <path
     class="cls-1"
     d="m 197.54081,21.516825 a 0.33,0.33 0 0 1 -0.14,0.27 0.39,0.39 0 0 1 -0.27,0.11 h -1.92 v 10.2 a 0.48,0.48 0 0 1 -0.1,0.28 0.33,0.33 0 0 1 -0.29,0.13 h -0.57 a 0.36,0.36 0 0 1 -0.28,-0.13 0.43,0.43 0 0 1 -0.11,-0.28 v -10.2 h -2 a 0.36,0.36 0 0 1 -0.26,-0.11 0.32,0.32 0 0 1 -0.13,-0.27 v -0.58 a 0.33,0.33 0 0 1 0.13,-0.29 0.4,0.4 0 0 1 0.26,-0.1 h 5.22 a 0.43,0.43 0 0 1 0.27,0.1 0.37,0.37 0 0 1 0.14,0.29 z"
     id="path389"
     style="fill:#ffffff;fill-opacity:1" />
  <path
     class="cls-1"
     d="m 200.82081,29.306825 a 3,3 0 0 0 0.06,0.74 1.69,1.69 0 0 0 0.23,0.65 1.13,1.13 0 0 0 0.47,0.45 1.74,1.74 0 0 0 0.81,0.17 1.62,1.62 0 0 0 0.81,-0.17 1.16,1.16 0 0 0 0.48,-0.45 1.85,1.85 0 0 0 0.22,-0.65 6.47,6.47 0 0 0 0,-0.76 v -8.35 a 0.42,0.42 0 0 1 0.1,-0.28 0.36,0.36 0 0 1 0.29,-0.11 h 0.57 a 0.38,0.38 0 0 1 0.4,0.36 v 8.92 a 6.42,6.42 0 0 1 -0.09,0.87 2.23,2.23 0 0 1 -0.4,0.92 2.37,2.37 0 0 1 -0.91,0.75 3.52,3.52 0 0 1 -1.6,0.31 3.05,3.05 0 0 1 -1.49,-0.31 2.45,2.45 0 0 1 -0.87,-0.73 2.2,2.2 0 0 1 -0.39,-0.87 4.17,4.17 0 0 1 -0.1,-0.79 v -9 a 0.42,0.42 0 0 1 0.1,-0.28 0.36,0.36 0 0 1 0.29,-0.11 h 0.58 a 0.39,0.39 0 0 1 0.27,0.11 0.38,0.38 0 0 1 0.12,0.28 z"
     id="path391"
     style="fill:#ffffff;fill-opacity:1" />
  <path
     class="cls-1"
     d="m 214.14081,32.116825 a 0.33,0.33 0 0 1 0,0.24 0.3,0.3 0 0 1 -0.3,0.15 h -0.69 a 0.45,0.45 0 0 1 -0.27,-0.08 0.58,0.58 0 0 1 -0.16,-0.31 l -1.61,-5.24 h -1.51 v 5.22 a 0.36,0.36 0 0 1 -0.11,0.26 0.36,0.36 0 0 1 -0.29,0.14 h -0.56 a 0.35,0.35 0 0 1 -0.28,-0.14 0.36,0.36 0 0 1 -0.11,-0.26 v -11.16 a 0.33,0.33 0 0 1 0.12,-0.28 0.4,0.4 0 0 1 0.27,-0.14 h 2.07 a 7.26,7.26 0 0 1 1.68,0.17 1.79,1.79 0 0 1 1.08,0.76 3.42,3.42 0 0 1 0.42,1 5.93,5.93 0 0 1 0.12,1.33 4.11,4.11 0 0 1 -0.34,1.86 2.15,2.15 0 0 1 -1.18,1 z m -4.56,-6.58 h 1.1 a 5.49,5.49 0 0 0 0.81,0 1,1 0 0 0 0.55,-0.23 1.06,1.06 0 0 0 0.27,-0.25 1.31,1.31 0 0 0 0.17,-0.28 1.38,1.38 0 0 0 0.09,-0.39 5.42,5.42 0 0 0 0,-0.57 3.15,3.15 0 0 0 -0.15,-1.1 1.2,1.2 0 0 0 -0.42,-0.57 1.11,1.11 0 0 0 -0.27,-0.13 2.33,2.33 0 0 0 -0.36,-0.08 h -1.8 z"
     id="path393"
     style="fill:#ffffff;fill-opacity:1" />
  <path
     class="cls-1"
     d="m 219.67081,26.656825 -0.25,1.58 -1,3.88 c -0.06,0.26 -0.18,0.39 -0.37,0.39 h -0.59 a 0.33,0.33 0 0 1 -0.27,-0.12 0.47,0.47 0 0 1 -0.12,-0.27 l -1.08,-11.16 a 0.39,0.39 0 0 1 0.39,-0.41 h 0.58 a 0.29,0.29 0 0 1 0.27,0.13 0.41,0.41 0 0 1 0.11,0.28 l 0.43,4.74 0.17,4.15 h 0.06 l 1,-4.94 a 0.5,0.5 0 0 1 0.12,-0.29 0.34,0.34 0 0 1 0.27,-0.1 h 0.61 a 0.34,0.34 0 0 1 0.27,0.1 0.5,0.5 0 0 1 0.12,0.29 l 1.07,4.94 h 0.07 l 0.16,-4.15 0.42,-4.74 a 0.57,0.57 0 0 1 0.11,-0.28 0.33,0.33 0 0 1 0.29,-0.13 h 0.57 a 0.36,0.36 0 0 1 0.29,0.13 0.32,0.32 0 0 1 0.1,0.28 l -1.07,11.16 a 0.54,0.54 0 0 1 -0.11,0.27 0.36,0.36 0 0 1 -0.27,0.12 h -0.6 c -0.19,0 -0.32,-0.13 -0.37,-0.39 l -1,-3.88 -0.25,-1.58 z"
     id="path395"
     style="fill:#ffffff;fill-opacity:1" />
  <path
     class="cls-1"
     d="m 226.66081,32.506825 a 0.34,0.34 0 0 1 -0.27,-0.13 0.39,0.39 0 0 1 -0.12,-0.28 v -11.16 a 0.42,0.42 0 0 1 0.12,-0.26 0.31,0.31 0 0 1 0.27,-0.13 h 0.58 a 0.33,0.33 0 0 1 0.29,0.13 0.4,0.4 0 0 1 0.1,0.26 v 11.16 a 0.48,0.48 0 0 1 -0.1,0.28 0.33,0.33 0 0 1 -0.29,0.13 z"
     id="path397"
     style="fill:#ffffff;fill-opacity:1" />
  <path
     class="cls-1"
     d="m 236.28081,29.196825 a 3.73,3.73 0 0 1 -0.8,2.61 2.87,2.87 0 0 1 -2.23,0.87 3.15,3.15 0 0 1 -1.48,-0.31 2.47,2.47 0 0 1 -0.89,-0.78 3.1,3.1 0 0 1 -0.49,-1.17 7.18,7.18 0 0 1 -0.14,-1.38 v -0.22 a 0.43,0.43 0 0 1 0.11,-0.28 0.44,0.44 0 0 1 0.29,-0.11 h 0.59 a 0.4,0.4 0 0 1 0.27,0.11 0.48,0.48 0 0 1 0.1,0.28 v 0.22 a 3.8,3.8 0 0 0 0.14,1.11 1.76,1.76 0 0 0 0.36,0.69 1.16,1.16 0 0 0 0.53,0.37 1.93,1.93 0 0 0 0.63,0.1 1.66,1.66 0 0 0 1.21,-0.38 2.11,2.11 0 0 0 0.46,-1.57 1.76,1.76 0 0 0 -0.32,-1.08 4.23,4.23 0 0 0 -0.84,-0.85 c -0.34,-0.26 -0.69,-0.52 -1.08,-0.77 a 7.58,7.58 0 0 1 -1.09,-0.85 4.28,4.28 0 0 1 -0.87,-1.11 3.17,3.17 0 0 1 -0.33,-1.48 3.13,3.13 0 0 1 0.18,-1 2.49,2.49 0 0 1 0.53,-0.9 2.44,2.44 0 0 1 0.87,-0.62 3.47,3.47 0 0 1 2.43,0 2.5,2.5 0 0 1 0.86,0.61 2.68,2.68 0 0 1 0.53,0.87 2.85,2.85 0 0 1 0.18,1 v 0.12 a 0.37,0.37 0 0 1 -0.37,0.39 h -0.62 a 0.33,0.33 0 0 1 -0.28,-0.12 0.44,0.44 0 0 1 -0.11,-0.27 v 0 a 1.41,1.41 0 0 0 -0.38,-1 1.31,1.31 0 0 0 -1,-0.4 1.48,1.48 0 0 0 -0.69,0.11 1.23,1.23 0 0 0 -0.45,0.32 1.28,1.28 0 0 0 -0.26,0.47 2.43,2.43 0 0 0 -0.08,0.53 1.74,1.74 0 0 0 0.34,1.06 4.46,4.46 0 0 0 0.83,0.85 12.2,12.2 0 0 0 1.09,0.8 11.2,11.2 0 0 1 1.13,0.82 4.23,4.23 0 0 1 0.83,1.05 2.87,2.87 0 0 1 0.31,1.29 z"
     id="path399"
     style="fill:#ffffff;fill-opacity:1" />
  <path
     class="cls-1"
     d="m 244.00081,29.196825 a 3.72,3.72 0 0 1 -0.79,2.61 2.89,2.89 0 0 1 -2.24,0.87 3.11,3.11 0 0 1 -1.47,-0.31 2.48,2.48 0 0 1 -0.92,-0.78 3.1,3.1 0 0 1 -0.49,-1.17 7.18,7.18 0 0 1 -0.09,-1.38 v -0.22 a 0.43,0.43 0 0 1 0.11,-0.28 0.44,0.44 0 0 1 0.29,-0.11 h 0.6 a 0.39,0.39 0 0 1 0.27,0.11 0.42,0.42 0 0 1 0.1,0.28 v 0.22 a 3.8,3.8 0 0 0 0.14,1.11 1.76,1.76 0 0 0 0.36,0.69 1.19,1.19 0 0 0 0.52,0.37 2,2 0 0 0 0.64,0.1 1.63,1.63 0 0 0 1.21,-0.45 2.12,2.12 0 0 0 0.47,-1.57 1.91,1.91 0 0 0 -0.33,-1.08 4.23,4.23 0 0 0 -0.84,-0.85 c -0.34,-0.26 -0.7,-0.51 -1.08,-0.77 a 8.17,8.17 0 0 1 -1.09,-0.85 4.22,4.22 0 0 1 -0.84,-1 3.17,3.17 0 0 1 -0.33,-1.48 3.13,3.13 0 0 1 0.18,-1 2.49,2.49 0 0 1 0.53,-0.9 2.44,2.44 0 0 1 0.87,-0.62 3.47,3.47 0 0 1 2.43,0 2.5,2.5 0 0 1 0.86,0.61 2.79,2.79 0 0 1 0.53,0.87 2.85,2.85 0 0 1 0.18,1 v 0.12 a 0.37,0.37 0 0 1 -0.37,0.39 h -0.6 a 0.33,0.33 0 0 1 -0.28,-0.12 0.39,0.39 0 0 1 -0.11,-0.27 v 0 a 1.45,1.45 0 0 0 -0.38,-1 1.31,1.31 0 0 0 -1,-0.4 1.46,1.46 0 0 0 -0.69,0.11 1.12,1.12 0 0 0 -0.45,0.32 1.28,1.28 0 0 0 -0.26,0.47 2,2 0 0 0 -0.08,0.53 1.68,1.68 0 0 0 0.34,1.06 4.46,4.46 0 0 0 0.83,0.85 c 0.36,0.27 0.74,0.52 1.12,0.75 a 8.92,8.92 0 0 1 1.06,0.87 4.31,4.31 0 0 1 0.85,1.05 3,3 0 0 1 0.24,1.25 z"
     id="path401"
     style="fill:#ffffff;fill-opacity:1" />
  <path
     class="cls-1"
     d="m 251.70081,32.116825 a 0.38,0.38 0 0 1 -0.12,0.28 0.44,0.44 0 0 1 -0.29,0.11 h -4.45 a 0.36,0.36 0 0 1 -0.28,-0.13 0.43,0.43 0 0 1 -0.11,-0.28 v -11.16 a 0.36,0.36 0 0 1 0.11,-0.26 0.31,0.31 0 0 1 0.28,-0.13 h 4.33 a 0.4,0.4 0 0 1 0.28,0.1 0.33,0.33 0 0 1 0.13,0.29 v 0.58 a 0.3,0.3 0 0 1 -0.13,0.27 0.39,0.39 0 0 1 -0.28,0.11 h -3.37 v 3.75 h 2.9 a 0.42,0.42 0 0 1 0.28,0.1 0.37,0.37 0 0 1 0.13,0.28 v 0.58 a 0.37,0.37 0 0 1 -0.13,0.28 0.43,0.43 0 0 1 -0.28,0.11 h -2.9 v 4.15 h 3.46 a 0.44,0.44 0 0 1 0.29,0.11 0.33,0.33 0 0 1 0.12,0.28 z"
     id="path403"
     style="fill:#ffffff;fill-opacity:1" />
  <path
     class="cls-1"
     d="m 255.19081,22.646825 0.27,3.57 v 5.88 a 0.42,0.42 0 0 1 -0.1,0.28 0.33,0.33 0 0 1 -0.29,0.13 h -0.57 a 0.36,0.36 0 0 1 -0.28,-0.12 0.4,0.4 0 0 1 -0.12,-0.29 v -11.16 a 0.36,0.36 0 0 1 0.12,-0.27 0.33,0.33 0 0 1 0.28,-0.12 h 1 a 0.26,0.26 0 0 1 0.26,0.13 1.26,1.26 0 0 1 0.13,0.26 l 3.21,9.47 -0.25,-3.37 v -6 a 0.48,0.48 0 0 1 0.1,-0.28 0.33,0.33 0 0 1 0.29,-0.13 h 0.56 a 0.4,0.4 0 0 1 0.29,0.12 0.49,0.49 0 0 1 0.11,0.29 v 11.08 a 0.5,0.5 0 0 1 -0.11,0.27 0.4,0.4 0 0 1 -0.29,0.12 h -1 a 0.3,0.3 0 0 1 -0.27,-0.13 0.85,0.85 0 0 1 -0.11,-0.26 z"
     id="path405"
     style="fill:#ffffff;fill-opacity:1" />
  <path
     class="cls-1"
     d="m 268.64081,29.196825 a 3.73,3.73 0 0 1 -0.8,2.61 2.87,2.87 0 0 1 -2.23,0.87 3.15,3.15 0 0 1 -1.48,-0.31 2.48,2.48 0 0 1 -0.92,-0.78 3.15,3.15 0 0 1 -0.48,-1.17 7.18,7.18 0 0 1 -0.14,-1.38 v -0.22 a 0.42,0.42 0 0 1 0.1,-0.28 0.44,0.44 0 0 1 0.29,-0.11 h 0.59 a 0.39,0.39 0 0 1 0.27,0.11 0.43,0.43 0 0 1 0.11,0.28 v 0.22 a 3.8,3.8 0 0 0 0.14,1.11 1.76,1.76 0 0 0 0.36,0.69 1.16,1.16 0 0 0 0.53,0.37 1.93,1.93 0 0 0 0.63,0.1 1.63,1.63 0 0 0 1.21,-0.45 2.12,2.12 0 0 0 0.47,-1.57 1.83,1.83 0 0 0 -0.33,-1.08 4.23,4.23 0 0 0 -0.84,-0.85 c -0.34,-0.26 -0.69,-0.51 -1.08,-0.77 a 7.9,7.9 0 0 1 -1.09,-0.81 4.19,4.19 0 0 1 -0.84,-1.08 3.05,3.05 0 0 1 -0.33,-1.48 3.13,3.13 0 0 1 0.18,-1 2.62,2.62 0 0 1 0.52,-0.9 2.44,2.44 0 0 1 0.87,-0.62 3,3 0 0 1 1.22,-0.22 2.92,2.92 0 0 1 1.21,0.22 2.64,2.64 0 0 1 0.87,0.61 2.58,2.58 0 0 1 0.52,0.87 2.85,2.85 0 0 1 0.18,1 v 0.12 a 0.37,0.37 0 0 1 -0.37,0.39 h -0.57 a 0.34,0.34 0 0 1 -0.28,-0.12 0.5,0.5 0 0 1 -0.11,-0.27 v 0 a 1.41,1.41 0 0 0 -0.38,-1 1.32,1.32 0 0 0 -1,-0.4 1.5,1.5 0 0 0 -0.69,0.11 1.23,1.23 0 0 0 -0.69,0.79 2,2 0 0 0 -0.08,0.53 1.68,1.68 0 0 0 0.34,1.06 4.08,4.08 0 0 0 0.85,0.81 c 0.34,0.28 0.71,0.54 1.08,0.79 a 9.69,9.69 0 0 1 1.05,0.87 4.27,4.27 0 0 1 0.84,1.05 3,3 0 0 1 0.3,1.29 z"
     id="path407"
     style="fill:#ffffff;fill-opacity:1" />
  <path
     class="cls-1"
     d="m 276.45081,23.626825 a 0.39,0.39 0 0 1 -0.11,0.28 0.34,0.34 0 0 1 -0.29,0.11 h -0.57 a 0.38,0.38 0 0 1 -0.39,-0.39 v -0.23 a 2.4,2.4 0 0 0 -0.07,-0.6 1.3,1.3 0 0 0 -0.23,-0.54 1.1,1.1 0 0 0 -0.42,-0.38 1.32,1.32 0 0 0 -0.65,-0.14 1.69,1.69 0 0 0 -0.77,0.16 1.44,1.44 0 0 0 -0.47,0.45 2.1,2.1 0 0 0 -0.23,0.65 6.71,6.71 0 0 0 -0.07,0.76 c 0,0.52 -0.06,1 -0.08,1.44 -0.02,0.44 0,0.88 0,1.3 0,0.42 0,0.86 0,1.29 0,0.43 0,0.89 0.08,1.38 a 6.87,6.87 0 0 0 0.08,0.78 2.1,2.1 0 0 0 0.24,0.69 1.33,1.33 0 0 0 0.47,0.5 1.43,1.43 0 0 0 0.81,0.19 1.38,1.38 0 0 0 0.69,-0.16 1.27,1.27 0 0 0 0.46,-0.46 2.41,2.41 0 0 0 0.24,-0.65 4.78,4.78 0 0 0 0.08,-0.75 v -0.62 a 0.37,0.37 0 0 1 0.1,-0.28 0.41,0.41 0 0 1 0.28,-0.11 h 0.58 a 0.39,0.39 0 0 1 0.39,0.38 v 0 1.16 a 3.06,3.06 0 0 1 -0.12,0.85 2.51,2.51 0 0 1 -0.43,0.92 2.48,2.48 0 0 1 -0.89,0.75 3.2,3.2 0 0 1 -1.49,0.31 2.9,2.9 0 0 1 -1.48,-0.33 2.39,2.39 0 0 1 -0.85,-0.76 2.78,2.78 0 0 1 -0.4,-0.94 5.52,5.52 0 0 1 -0.12,-0.8 c 0,-0.59 -0.08,-1.14 -0.11,-1.68 -0.03,-0.54 0,-1.06 0,-1.6 v -1.58 c 0,-0.54 0.05,-1.09 0.1,-1.66 a 5.18,5.18 0 0 1 0.11,-0.87 2.45,2.45 0 0 1 1.3,-1.73 3.47,3.47 0 0 1 1.62,-0.31 2.67,2.67 0 0 1 1.35,0.3 2.3,2.3 0 0 1 1.19,1.57 4,4 0 0 1 0.1,0.77 z"
     id="path409"
     style="fill:#ffffff;fill-opacity:1" />
  <path
     class="cls-1"
     d="m 283.83081,32.506825 a 0.37,0.37 0 0 1 -0.28,-0.13 0.43,0.43 0 0 1 -0.11,-0.28 v -5.06 h -3.13 v 5.1 a 0.43,0.43 0 0 1 -0.11,0.28 0.31,0.31 0 0 1 -0.28,0.13 h -0.58 a 0.37,0.37 0 0 1 -0.28,-0.13 0.43,0.43 0 0 1 -0.11,-0.28 v -11.2 a 0.47,0.47 0 0 1 0.11,-0.26 0.34,0.34 0 0 1 0.28,-0.13 h 0.58 a 0.31,0.31 0 0 1 0.28,0.13 0.36,0.36 0 0 1 0.11,0.26 v 4.71 h 3.13 v -4.71 a 0.36,0.36 0 0 1 0.11,-0.26 0.32,0.32 0 0 1 0.28,-0.13 h 0.58 a 0.31,0.31 0 0 1 0.28,0.13 0.36,0.36 0 0 1 0.11,0.26 v 11.16 a 0.43,0.43 0 0 1 -0.11,0.28 0.33,0.33 0 0 1 -0.28,0.13 z"
     id="path411"
     style="fill:#ffffff;fill-opacity:1" />
  <path
     class="cls-1"
     d="m 290.62081,20.516825 c 0.2,0 0.34,0.13 0.39,0.39 l 2.24,11.18 a 0.35,0.35 0 0 1 -0.05,0.28 0.32,0.32 0 0 1 -0.27,0.11 h -0.7 c -0.22,0 -0.35,-0.13 -0.4,-0.39 l -0.42,-2 h -2.32 l -0.41,2 c 0,0.26 -0.18,0.39 -0.4,0.39 h -0.69 a 0.3,0.3 0 0 1 -0.27,-0.11 0.32,0.32 0 0 1 -0.05,-0.28 l 2.28,-11.15 a 0.7,0.7 0 0 1 0.12,-0.28 0.32,0.32 0 0 1 0.27,-0.11 z m 0.6,8.23 -0.69,-4.2 -0.24,-2.29 h -0.05 l -0.24,2.29 -0.69,4.2 z"
     id="path413"
     style="fill:#ffffff;fill-opacity:1" />
  <path
     class="cls-1"
     d="m 300.43081,26.606825 a 0.31,0.31 0 0 1 -0.13,0.28 0.39,0.39 0 0 1 -0.3,0.15 h -2.87 v 5.1 a 0.42,0.42 0 0 1 -0.1,0.28 0.32,0.32 0 0 1 -0.29,0.13 h -0.57 a 0.36,0.36 0 0 1 -0.28,-0.13 0.5,0.5 0 0 1 -0.12,-0.28 v -11.2 a 0.42,0.42 0 0 1 0.12,-0.26 0.31,0.31 0 0 1 0.28,-0.13 h 4.33 a 0.42,0.42 0 0 1 0.28,0.1 0.36,0.36 0 0 1 0.13,0.29 v 0.58 a 0.34,0.34 0 0 1 -0.13,0.27 0.39,0.39 0 0 1 -0.28,0.11 h -3.37 v 3.75 h 2.9 a 0.42,0.42 0 0 1 0.28,0.1 0.37,0.37 0 0 1 0.13,0.28 z"
     id="path415"
     style="fill:#ffffff;fill-opacity:1" />
  <path
     class="cls-1"
     d="m 308.19081,21.516825 a 0.34,0.34 0 0 1 -0.13,0.27 0.39,0.39 0 0 1 -0.28,0.11 h -1.92 v 10.2 a 0.41,0.41 0 0 1 -0.09,0.28 0.33,0.33 0 0 1 -0.29,0.13 h -0.58 a 0.39,0.39 0 0 1 -0.38,-0.41 v -10.2 h -2 a 0.38,0.38 0 0 1 -0.26,-0.11 0.33,0.33 0 0 1 -0.12,-0.27 v -0.58 a 0.35,0.35 0 0 1 0.12,-0.29 0.42,0.42 0 0 1 0.26,-0.1 h 5.22 a 0.48,0.48 0 0 1 0.28,0.1 0.36,0.36 0 0 1 0.13,0.29 z"
     id="path417"
     style="fill:#ffffff;fill-opacity:1" />
  <path
     class="cls-1"
     d="m 315.59081,32.116825 a 0.32,0.32 0 0 1 -0.13,0.28 0.39,0.39 0 0 1 -0.28,0.11 h -4.45 a 0.37,0.37 0 0 1 -0.28,-0.13 0.43,0.43 0 0 1 -0.11,-0.28 v -11.16 a 0.36,0.36 0 0 1 0.11,-0.26 0.32,0.32 0 0 1 0.28,-0.13 h 4.34 a 0.38,0.38 0 0 1 0.27,0.1 0.33,0.33 0 0 1 0.13,0.29 v 0.58 a 0.3,0.3 0 0 1 -0.13,0.27 0.39,0.39 0 0 1 -0.27,0.11 h -3.38 v 3.75 h 2.89 a 0.43,0.43 0 0 1 0.29,0.1 0.33,0.33 0 0 1 0.13,0.29 v 0.58 a 0.36,0.36 0 0 1 -0.12,0.28 0.44,0.44 0 0 1 -0.29,0.11 h -2.89 v 4.15 h 3.46 a 0.43,0.43 0 0 1 0.28,0.11 0.36,0.36 0 0 1 0.13,0.28 z"
     id="path419"
     style="fill:#ffffff;fill-opacity:1" />
  <path
     class="cls-1"
     d="m 319.08081,22.646825 0.27,3.57 v 5.88 a 0.48,0.48 0 0 1 -0.1,0.28 0.33,0.33 0 0 1 -0.29,0.13 h -0.57 a 0.4,0.4 0 0 1 -0.29,-0.12 0.43,0.43 0 0 1 -0.1,-0.29 v -11.16 a 0.43,0.43 0 0 1 0.1,-0.27 0.4,0.4 0 0 1 0.29,-0.12 h 1 a 0.29,0.29 0 0 1 0.27,0.13 1.23,1.23 0 0 1 0.12,0.26 l 3.22,9.47 -0.24,-3.37 v -6 a 0.4,0.4 0 0 1 0.1,-0.28 0.32,0.32 0 0 1 0.29,-0.13 h 0.57 a 0.36,0.36 0 0 1 0.28,0.12 0.42,0.42 0 0 1 0.11,0.29 v 11.08 a 0.39,0.39 0 0 1 -0.11,0.27 0.36,0.36 0 0 1 -0.28,0.12 h -1 a 0.3,0.3 0 0 1 -0.27,-0.13 0.85,0.85 0 0 1 -0.11,-0.26 z"
     id="path421"
     style="fill:#ffffff;fill-opacity:1" />
  <path
     class="cls-1"
     d="m 87.920812,49.626825 a 4.74,4.74 0 0 0 0.06,0.75 1.8,1.8 0 0 0 0.22,0.64 1.25,1.25 0 0 0 0.48,0.46 1.74,1.74 0 0 0 0.81,0.17 1.8,1.8 0 0 0 0.82,-0.17 1.22,1.22 0 0 0 0.47,-0.46 1.67,1.67 0 0 0 0.22,-0.65 4.73,4.73 0 0 0 0,-0.75 v -8.34 a 0.48,0.48 0 0 1 0.1,-0.29 0.44,0.44 0 0 1 0.29,-0.11 h 0.61 a 0.38,0.38 0 0 1 0.39,0.37 v 8.91 a 6.11,6.11 0 0 1 -0.09,0.86 2.3,2.3 0 0 1 -0.39,0.94 2.52,2.52 0 0 1 -0.94,0.74 3.55,3.55 0 0 1 -1.61,0.3 3.21,3.21 0 0 1 -1.49,-0.3 2.42,2.42 0 0 1 -0.86,-0.73 2.07,2.07 0 0 1 -0.4,-0.88 3.39,3.39 0 0 1 -0.09,-0.78 v -9 a 0.42,0.42 0 0 1 0.09,-0.29 0.46,0.46 0 0 1 0.29,-0.11 h 0.61 a 0.39,0.39 0 0 1 0.4,0.37 v 8.38 z"
     id="path423"
     style="fill:#ffffff;fill-opacity:1" />
  <path
     class="cls-1"
     d="m 96.400812,42.976825 0.28,3.57 v 5.88 a 0.43,0.43 0 0 1 -0.1,0.27 0.37,0.37 0 0 1 -0.3,0.14 h -0.57 a 0.39,0.39 0 0 1 -0.28,-0.12 0.44,0.44 0 0 1 -0.11,-0.29 v -11.15 a 0.39,0.39 0 0 1 0.39,-0.4 h 1 a 0.27,0.27 0 0 1 0.29,0.16 2.24,2.24 0 0 1 0.13,0.27 l 3.179998,9.46 -0.25,-3.4 v -6.09 a 0.39,0.39 0 0 1 0.1,-0.28 0.33,0.33 0 0 1 0.29,-0.13 h 0.55 a 0.36,0.36 0 0 1 0.28,0.11 0.48,0.48 0 0 1 0.11,0.3 v 11.16 a 0.43,0.43 0 0 1 -0.11,0.28 0.36,0.36 0 0 1 -0.28,0.12 h -1 a 0.3,0.3 0 0 1 -0.269998,-0.14 0.57,0.57 0 0 1 -0.12,-0.26 z"
     id="path425"
     style="fill:#ffffff;fill-opacity:1" />
  <path
     class="cls-1"
     d="m 105.13081,52.836825 a 0.35,0.35 0 0 1 -0.28,-0.14 0.39,0.39 0 0 1 -0.11,-0.27 v -11.15 a 0.39,0.39 0 0 1 0.11,-0.27 0.37,0.37 0 0 1 0.28,-0.13 h 0.57 a 0.33,0.33 0 0 1 0.3,0.16 0.44,0.44 0 0 1 0.11,0.27 v 11.12 a 0.39,0.39 0 0 1 -0.11,0.27 0.37,0.37 0 0 1 -0.29,0.14 z"
     id="path427"
     style="fill:#ffffff;fill-opacity:1" />
  <path
     class="cls-1"
     d="m 111.00081,52.836825 c -0.2,0 -0.33,-0.14 -0.39,-0.4 l -2.29,-11.16 a 0.31,0.31 0 0 1 0.06,-0.29 0.29,0.29 0 0 1 0.26,-0.11 h 0.69 c 0.23,0 0.36,0.13 0.41,0.4 l 0.72,3.63 0.86,5.36 0.88,-5.36 0.73,-3.63 c 0,-0.27 0.18,-0.4 0.41,-0.4 h 0.66 a 0.3,0.3 0 0 1 0.27,0.11 0.37,0.37 0 0 1 0.06,0.29 l -2.33,11.17 q -0.09,0.39 -0.39,0.39 z"
     id="path429"
     style="fill:#ffffff;fill-opacity:1" />
  <path
     class="cls-1"
     d="m 122.00081,52.436825 a 0.41,0.41 0 0 1 -0.41,0.4 h -4.45 a 0.35,0.35 0 0 1 -0.28,-0.14 0.39,0.39 0 0 1 -0.11,-0.27 v -11.15 a 0.39,0.39 0 0 1 0.11,-0.27 0.37,0.37 0 0 1 0.28,-0.13 h 4.33 a 0.45,0.45 0 0 1 0.28,0.1 0.35,0.35 0 0 1 0.13,0.3 v 0.57 a 0.34,0.34 0 0 1 -0.13,0.28 0.39,0.39 0 0 1 -0.28,0.11 h -3.37 v 3.74 h 2.9 a 0.48,0.48 0 0 1 0.28,0.1 0.37,0.37 0 0 1 0.13,0.29 v 0.58 a 0.35,0.35 0 0 1 -0.13,0.27 0.39,0.39 0 0 1 -0.28,0.12 h -2.9 v 4.15 h 3.46 a 0.38,0.38 0 0 1 0.27,0.1 0.35,0.35 0 0 1 0.14,0.28 z"
     id="path431"
     style="fill:#ffffff;fill-opacity:1" />
  <path
     class="cls-1"
     d="m 130.32081,52.436825 a 0.43,0.43 0 0 1 0,0.25 0.31,0.31 0 0 1 -0.29,0.15 h -0.69 a 0.5,0.5 0 0 1 -0.27,-0.08 0.76,0.76 0 0 1 -0.17,-0.32 l -1.61,-5.23 h -1.51 v 5.22 a 0.37,0.37 0 0 1 -0.1,0.26 0.32,0.32 0 0 1 -0.28,0.13 h -0.58 a 0.32,0.32 0 0 1 -0.28,-0.13 0.36,0.36 0 0 1 -0.11,-0.26 v -11.15 a 0.32,0.32 0 0 1 0.13,-0.29 0.47,0.47 0 0 1 0.26,-0.11 h 2.08 a 7.4,7.4 0 0 1 1.69,0.17 1.8,1.8 0 0 1 1.07,0.76 2.73,2.73 0 0 1 0.41,1 6.59,6.59 0 0 1 0.13,1.33 4.11,4.11 0 0 1 -0.34,1.86 2.15,2.15 0 0 1 -1.18,1 z m -4.56,-6.57 h 1.12 a 7.14,7.14 0 0 0 0.8,0 1.22,1.22 0 0 0 0.55,-0.23 0.93,0.93 0 0 0 0.27,-0.25 1.17,1.17 0 0 0 0.17,-0.28 1.8,1.8 0 0 0 0.1,-0.4 v -0.57 a 3.19,3.19 0 0 0 -0.16,-1.1 1.1,1.1 0 0 0 -0.42,-0.56 0.84,0.84 0 0 0 -0.27,-0.13 1.21,1.21 0 0 0 -0.38,-0.06 h -1.82 z"
     id="path433"
     style="fill:#ffffff;fill-opacity:1" />
  <path
     class="cls-1"
     d="m 138.19081,49.526825 a 3.73,3.73 0 0 1 -0.8,2.61 2.87,2.87 0 0 1 -2.23,0.9 3.11,3.11 0 0 1 -1.47,-0.31 2.59,2.59 0 0 1 -0.93,-0.81 3.09,3.09 0 0 1 -0.48,-1.17 7.1,7.1 0 0 1 -0.14,-1.38 v -0.17 a 0.39,0.39 0 0 1 0.11,-0.27 0.34,0.34 0 0 1 0.29,-0.11 h 0.59 a 0.32,0.32 0 0 1 0.27,0.11 0.38,0.38 0 0 1 0.1,0.27 v 0.19 a 3.46,3.46 0 0 0 0.14,1.11 1.87,1.87 0 0 0 0.36,0.7 1.25,1.25 0 0 0 0.52,0.36 2,2 0 0 0 0.64,0.1 1.68,1.68 0 0 0 1.21,-0.44 2.12,2.12 0 0 0 0.46,-1.57 1.77,1.77 0 0 0 -0.32,-1.09 3.76,3.76 0 0 0 -0.85,-0.84 c -0.33,-0.27 -0.69,-0.52 -1.07,-0.78 a 6.93,6.93 0 0 1 -1.09,-0.85 4.07,4.07 0 0 1 -0.84,-1.09 3.17,3.17 0 0 1 -0.33,-1.48 3.47,3.47 0 0 1 0.17,-1.07 2.64,2.64 0 0 1 0.53,-0.9 2.29,2.29 0 0 1 0.87,-0.61 3,3 0 0 1 1.22,-0.23 3,3 0 0 1 1.21,0.23 2.35,2.35 0 0 1 0.86,0.6 2.83,2.83 0 0 1 0.53,0.88 2.8,2.8 0 0 1 0.18,1 v 0.13 a 0.39,0.39 0 0 1 -0.37,0.39 h -0.6 a 0.33,0.33 0 0 1 -0.28,-0.12 0.47,0.47 0 0 1 -0.11,-0.26 v 0 a 1.47,1.47 0 0 0 -0.38,-1 1.35,1.35 0 0 0 -1,-0.4 1.62,1.62 0 0 0 -0.69,0.12 1.17,1.17 0 0 0 -0.69,0.78 2,2 0 0 0 -0.08,0.54 1.75,1.75 0 0 0 0.33,1.06 4.46,4.46 0 0 0 0.85,0.83 12.14,12.14 0 0 0 1.1,0.78 9.93,9.93 0 0 1 1.02,0.77 4,4 0 0 1 0.84,1 2.88,2.88 0 0 1 0.35,1.49 z"
     id="path435"
     style="fill:#ffffff;fill-opacity:1" />
  <path
     class="cls-1"
     d="m 141.21081,52.836825 a 0.34,0.34 0 0 1 -0.28,-0.14 0.39,0.39 0 0 1 -0.11,-0.27 v -11.15 a 0.39,0.39 0 0 1 0.11,-0.27 0.36,0.36 0 0 1 0.28,-0.13 h 0.57 a 0.33,0.33 0 0 1 0.29,0.13 0.45,0.45 0 0 1 0.12,0.27 v 11.15 a 0.39,0.39 0 0 1 -0.11,0.27 0.34,0.34 0 0 1 -0.29,0.14 z"
     id="path437"
     style="fill:#ffffff;fill-opacity:1" />
  <path
     class="cls-1"
     d="m 150.56081,41.836825 a 0.37,0.37 0 0 1 -0.13,0.28 0.43,0.43 0 0 1 -0.28,0.11 h -1.91 v 10.2 a 0.39,0.39 0 0 1 -0.11,0.27 0.35,0.35 0 0 1 -0.28,0.14 h -0.58 a 0.35,0.35 0 0 1 -0.28,-0.14 0.39,0.39 0 0 1 -0.11,-0.27 v -10.2 h -1.88 a 0.39,0.39 0 0 1 -0.27,-0.11 0.37,0.37 0 0 1 -0.13,-0.28 v -0.56 a 0.42,0.42 0 0 1 0.13,-0.3 0.45,0.45 0 0 1 0.27,-0.1 h 5.21 a 0.48,0.48 0 0 1 0.28,0.1 0.38,0.38 0 0 1 0.13,0.3 z"
     id="path439"
     style="fill:#ffffff;fill-opacity:1" />
  <path
     class="cls-1"
     d="m 154.81081,40.866825 c 0.2,0 0.33,0.14 0.39,0.4 l 2.21,11.17 a 0.34,0.34 0 0 1 0,0.29 0.35,0.35 0 0 1 -0.27,0.11 h -0.66 c -0.22,0 -0.36,-0.14 -0.4,-0.4 l -0.43,-2 h -2.32 l -0.41,2 c 0,0.26 -0.18,0.4 -0.4,0.4 h -0.69 a 0.32,0.32 0 0 1 -0.27,-0.11 0.34,0.34 0 0 1 0,-0.29 l 2.28,-11.16 a 0.74,0.74 0 0 1 0.12,-0.29 0.32,0.32 0 0 1 0.27,-0.11 z m -2.81,-1.47 a 0.89358827,0.89358827 0 0 1 1.78,-0.16 v 0.16 a 0.9,0.9 0 0 1 -1.52,0.63 v 0 a 0.86,0.86 0 0 1 -0.27,-0.62 z m 3.37,9.69 -0.69,-4.2 -0.24,-2.29 h -0.07 l -0.23,2.29 -0.69,4.2 z m -0.27,-9.69 a 0.89358827,0.89358827 0 0 1 1.78,-0.16 v 0.16 a 0.86,0.86 0 0 1 -0.27,0.62 0.88,0.88 0 0 1 -1.25,0 v 0 a 0.86,0.86 0 0 1 -0.27,-0.62 z"
     id="path441"
     style="fill:#ffffff;fill-opacity:1" />
  <path
     class="cls-1"
     d="m 164.40081,41.836825 a 0.37,0.37 0 0 1 -0.13,0.28 0.43,0.43 0 0 1 -0.28,0.11 h -1.92 v 10.2 a 0.42,0.42 0 0 1 -0.09,0.27 0.37,0.37 0 0 1 -0.3,0.14 h -0.57 a 0.35,0.35 0 0 1 -0.28,-0.14 0.39,0.39 0 0 1 -0.11,-0.27 v -10.2 h -1.93 a 0.36,0.36 0 0 1 -0.26,-0.11 0.33,0.33 0 0 1 -0.12,-0.28 v -0.56 a 0.37,0.37 0 0 1 0.12,-0.3 0.42,0.42 0 0 1 0.26,-0.1 h 5.21 a 0.48,0.48 0 0 1 0.28,0.1 0.4,0.4 0 0 1 0.13,0.3 z"
     id="path443"
     style="fill:#ffffff;fill-opacity:1" />
  <path
     class="cls-1"
     d="m 171.88081,49.526825 a 3.72,3.72 0 0 1 -0.79,2.61 2.91,2.91 0 0 1 -2.24,0.9 3.11,3.11 0 0 1 -1.47,-0.31 2.5,2.5 0 0 1 -0.93,-0.81 3.09,3.09 0 0 1 -0.48,-1.17 6.39,6.39 0 0 1 -0.13,-1.38 v -0.17 a 0.37,0.37 0 0 1 0.09,-0.27 0.36,0.36 0 0 1 0.29,-0.11 h 0.6 a 0.29,0.29 0 0 1 0.27,0.07 0.35,0.35 0 0 1 0.11,0.27 v 0.19 a 3.79,3.79 0 0 0 0.13,1.11 1.78,1.78 0 0 0 0.37,0.69 1.19,1.19 0 0 0 0.52,0.37 2,2 0 0 0 0.64,0.1 1.68,1.68 0 0 0 1.21,-0.44 2.15,2.15 0 0 0 0.46,-1.58 1.77,1.77 0 0 0 -0.33,-1.08 4,4 0 0 0 -0.84,-0.85 c -0.33,-0.26 -0.69,-0.51 -1.08,-0.77 a 7.49,7.49 0 0 1 -1.08,-0.86 4.07,4.07 0 0 1 -0.84,-1.09 3.17,3.17 0 0 1 -0.33,-1.48 3.46,3.46 0 0 1 0.17,-1.06 2.93,2.93 0 0 1 0.53,-0.9 2.54,2.54 0 0 1 0.87,-0.61 3.35,3.35 0 0 1 2.44,0 2.6,2.6 0 0 1 0.86,0.61 2.68,2.68 0 0 1 0.53,0.87 3.09,3.09 0 0 1 0.17,1 v 0.12 a 0.43,0.43 0 0 1 -0.11,0.28 0.46,0.46 0 0 1 -0.3,0.11 h -0.55 a 0.39,0.39 0 0 1 -0.29,-0.13 0.47,0.47 0 0 1 -0.11,-0.26 v 0 a 1.43,1.43 0 0 0 -0.38,-1 1.35,1.35 0 0 0 -1,-0.4 1.62,1.62 0 0 0 -0.69,0.12 1.28,1.28 0 0 0 -0.45,0.32 1,1 0 0 0 -0.25,0.47 1.87,1.87 0 0 0 0.25,1.59 4.61,4.61 0 0 0 0.85,0.86 10.69,10.69 0 0 0 1.08,0.79 9.93,9.93 0 0 1 1.08,0.86 4.09,4.09 0 0 1 0.84,1.06 2.8,2.8 0 0 1 0.31,1.36 z"
     id="path445"
     style="fill:#ffffff;fill-opacity:1" />
  <path
     class="cls-1"
     d="m 176.59081,40.866825 c 0.42,0 0.83,0 1.24,0.07 a 2.8,2.8 0 0 1 0.88,0.27 2.08,2.08 0 0 1 0.91,1 4,4 0 0 1 0.29,1.5 4.67,4.67 0 0 1 -0.27,1.89 1.83,1.83 0 0 1 -0.38,0.53 1.86,1.86 0 0 1 -0.47,0.32 1.69,1.69 0 0 1 1.06,0.91 4.21,4.21 0 0 1 0.31,1.79 9.6,9.6 0 0 1 -0.08,1.31 3.06,3.06 0 0 1 -0.4,1.18 2.3,2.3 0 0 1 -0.91,0.84 3.6,3.6 0 0 1 -1.64,0.33 h -2.42 a 0.34,0.34 0 0 1 -0.28,-0.14 0.39,0.39 0 0 1 -0.11,-0.27 v -11.12 a 0.37,0.37 0 0 1 0.12,-0.3 0.43,0.43 0 0 1 0.27,-0.1 z m -1,5 h 1.07 a 5.85,5.85 0 0 0 0.73,0 1.16,1.16 0 0 0 0.61,-0.24 1.26,1.26 0 0 0 0.4,-0.61 3.58,3.58 0 0 0 0.14,-1.17 1.85,1.85 0 0 0 -0.16,-0.87 1.05,1.05 0 0 0 -0.4,-0.48 1.65,1.65 0 0 0 -0.64,-0.2 h -1.75 z m 0,1.38 v 4.26 h 1.41 a 2.78,2.78 0 0 0 0.76,-0.1 1,1 0 0 0 0.56,-0.35 1.45,1.45 0 0 0 0.34,-0.69 4.76,4.76 0 0 0 0.12,-1.19 2.88,2.88 0 0 0 -0.13,-1 1.26,1.26 0 0 0 -0.41,-0.58 1.68,1.68 0 0 0 -0.69,-0.28 5.62,5.62 0 0 0 -0.92,-0.08 z"
     id="path447"
     style="fill:#ffffff;fill-opacity:1" />
  <path
     class="cls-1"
     d="m 183.50081,52.836825 a 0.35,0.35 0 0 1 -0.28,-0.14 0.39,0.39 0 0 1 -0.11,-0.27 v -11.15 a 0.39,0.39 0 0 1 0.11,-0.27 0.37,0.37 0 0 1 0.28,-0.13 h 0.58 a 0.31,0.31 0 0 1 0.28,0.13 0.44,0.44 0 0 1 0.11,0.27 v 11.15 a 0.39,0.39 0 0 1 -0.11,0.27 0.34,0.34 0 0 1 -0.28,0.14 z"
     id="path449"
     style="fill:#ffffff;fill-opacity:1" />
  <path
     class="cls-1"
     d="m 190.11081,40.866825 c 0.41,0 0.82,0 1.23,0.07 a 2.65,2.65 0 0 1 0.88,0.27 2.08,2.08 0 0 1 0.91,1 3.83,3.83 0 0 1 0.3,1.5 5,5 0 0 1 -0.27,1.89 1.83,1.83 0 0 1 -0.38,0.53 2.59,2.59 0 0 1 -0.47,0.32 1.65,1.65 0 0 1 1.07,0.91 4.07,4.07 0 0 1 0.32,1.79 9.6,9.6 0 0 1 -0.08,1.31 3.12,3.12 0 0 1 -0.4,1.18 2.26,2.26 0 0 1 -0.92,0.84 3.57,3.57 0 0 1 -1.64,0.33 h -2.46 a 0.37,0.37 0 0 1 -0.29,-0.14 0.39,0.39 0 0 1 -0.11,-0.27 v -11.12 a 0.37,0.37 0 0 1 0.13,-0.3 0.43,0.43 0 0 1 0.27,-0.1 z m -1,5 h 1.06 a 6,6 0 0 0 0.74,0 1.35,1.35 0 0 0 0.61,-0.24 1.31,1.31 0 0 0 0.39,-0.61 3.58,3.58 0 0 0 0.14,-1.17 1.84,1.84 0 0 0 -0.15,-0.87 1.07,1.07 0 0 0 -0.41,-0.48 1.6,1.6 0 0 0 -0.64,-0.2 h -1.74 z m 0,1.38 v 4.26 h 1.38 a 2.78,2.78 0 0 0 0.76,-0.1 1,1 0 0 0 0.56,-0.35 1.72,1.72 0 0 0 0.34,-0.69 4.76,4.76 0 0 0 0.12,-1.19 2.66,2.66 0 0 0 -0.14,-1 1.17,1.17 0 0 0 -0.4,-0.58 1.74,1.74 0 0 0 -0.69,-0.28 5.72,5.72 0 0 0 -0.92,-0.08 z"
     id="path451"
     style="fill:#ffffff;fill-opacity:1" />
  <path
     class="cls-1"
     d="m 201.42081,52.436825 a 0.33,0.33 0 0 1 -0.13,0.29 0.39,0.39 0 0 1 -0.27,0.11 h -4.22 a 0.35,0.35 0 0 1 -0.28,-0.14 0.39,0.39 0 0 1 -0.11,-0.27 v -11.15 a 0.39,0.39 0 0 1 0.11,-0.27 0.37,0.37 0 0 1 0.28,-0.13 h 0.57 a 0.33,0.33 0 0 1 0.29,0.13 0.38,0.38 0 0 1 0.1,0.27 v 10.2 h 3.24 a 0.43,0.43 0 0 1 0.27,0.1 0.33,0.33 0 0 1 0.13,0.29 z"
     id="path453"
     style="fill:#ffffff;fill-opacity:1" />
  <path
     class="cls-1"
     d="m 204.07081,52.836825 a 0.37,0.37 0 0 1 -0.29,-0.14 0.39,0.39 0 0 1 -0.11,-0.27 v -11.15 a 0.5,0.5 0 0 1 0.11,-0.27 0.39,0.39 0 0 1 0.29,-0.13 h 0.57 a 0.31,0.31 0 0 1 0.28,0.13 0.39,0.39 0 0 1 0.11,0.27 v 11.15 a 0.39,0.39 0 0 1 -0.11,0.27 0.34,0.34 0 0 1 -0.28,0.14 z"
     id="path455"
     style="fill:#ffffff;fill-opacity:1" />
  <path
     class="cls-1"
     d="m 211.00081,53.036825 a 3.16,3.16 0 0 1 -1.51,-0.32 2.31,2.31 0 0 1 -0.84,-0.83 2.77,2.77 0 0 1 -0.4,-1 6.42,6.42 0 0 1 -0.12,-0.88 q -0.09,-1.68 -0.09,-3.21 c 0,-1 0,-2.07 0.09,-3.2 a 6.28,6.28 0 0 1 0.12,-0.87 2.77,2.77 0 0 1 0.4,-1 2.3,2.3 0 0 1 0.87,-0.77 3.8,3.8 0 0 1 3,0 2.3,2.3 0 0 1 0.87,0.77 2.77,2.77 0 0 1 0.4,1 6.28,6.28 0 0 1 0.12,0.87 c 0,1.11 0.09,2.18 0.09,3.2 0,1.02 0,2.08 -0.09,3.21 a 6.42,6.42 0 0 1 -0.12,0.88 2.77,2.77 0 0 1 -0.4,1 2.27,2.27 0 0 1 -0.87,0.79 3.08,3.08 0 0 1 -1.52,0.36 z m 0,-10.94 a 1.43,1.43 0 0 0 -0.78,0.19 1.35,1.35 0 0 0 -0.45,0.47 2.44,2.44 0 0 0 -0.23,0.69 q -0.06,0.39 -0.09,0.78 c 0,0.93 -0.07,1.8 -0.06,2.65 0.01,0.85 0,1.73 0.06,2.66 a 6.43,6.43 0 0 0 0.08,0.78 2.14,2.14 0 0 0 0.23,0.7 1.35,1.35 0 0 0 0.46,0.49 1.72,1.72 0 0 0 1.56,0 1.41,1.41 0 0 0 0.48,-0.49 2.12,2.12 0 0 0 0.22,-0.7 5,5 0 0 0 0.07,-0.78 c 0,-0.93 0.07,-1.82 0.07,-2.66 0,-0.84 0,-1.72 -0.07,-2.65 a 4.13,4.13 0 0 0 -0.08,-0.78 1.94,1.94 0 0 0 -0.23,-0.69 1.16,1.16 0 0 0 -0.46,-0.47 1.42,1.42 0 0 0 -0.78,-0.25 z"
     id="path457"
     style="fill:#ffffff;fill-opacity:1" />
  <path
     class="cls-1"
     d="m 221.31081,41.836825 a 0.37,0.37 0 0 1 -0.13,0.28 0.41,0.41 0 0 1 -0.28,0.11 h -1.9 v 10.2 a 0.38,0.38 0 0 1 -0.1,0.27 0.37,0.37 0 0 1 -0.29,0.14 h -0.61 a 0.33,0.33 0 0 1 -0.27,-0.14 0.39,0.39 0 0 1 -0.11,-0.27 v -10.2 h -1.95 a 0.39,0.39 0 0 1 -0.27,-0.11 0.36,0.36 0 0 1 -0.12,-0.28 v -0.56 a 0.37,0.37 0 0 1 0.12,-0.3 0.45,0.45 0 0 1 0.27,-0.1 h 5.21 a 0.48,0.48 0 0 1 0.29,0.1 0.37,0.37 0 0 1 0.12,0.3 z"
     id="path459"
     style="fill:#ffffff;fill-opacity:1" />
  <path
     class="cls-1"
     d="m 228.34081,52.836825 a 0.35,0.35 0 0 1 -0.28,-0.14 0.39,0.39 0 0 1 -0.11,-0.27 v -5.1 h -3.13 v 5.1 a 0.39,0.39 0 0 1 -0.11,0.27 0.35,0.35 0 0 1 -0.28,0.14 h -0.6 a 0.35,0.35 0 0 1 -0.28,-0.14 0.39,0.39 0 0 1 -0.11,-0.27 v -11.15 a 0.39,0.39 0 0 1 0.11,-0.27 0.37,0.37 0 0 1 0.28,-0.13 h 0.58 a 0.32,0.32 0 0 1 0.28,0.13 0.38,0.38 0 0 1 0.1,0.27 v 4.7 h 3.21 v -4.7 a 0.39,0.39 0 0 1 0.11,-0.27 0.35,0.35 0 0 1 0.27,-0.13 h 0.58 a 0.33,0.33 0 0 1 0.29,0.13 0.43,0.43 0 0 1 0.1,0.27 v 11.15 a 0.38,0.38 0 0 1 -0.1,0.27 0.37,0.37 0 0 1 -0.29,0.14 z"
     id="path461"
     style="fill:#ffffff;fill-opacity:1" />
  <path
     class="cls-1"
     d="m 237.66081,52.436825 a 0.36,0.36 0 0 1 -0.12,0.29 0.44,0.44 0 0 1 -0.29,0.11 h -4.43 a 0.34,0.34 0 0 1 -0.28,-0.14 0.39,0.39 0 0 1 -0.11,-0.27 v -11.15 a 0.39,0.39 0 0 1 0.11,-0.27 0.36,0.36 0 0 1 0.28,-0.13 h 4.33 a 0.45,0.45 0 0 1 0.28,0.1 0.38,0.38 0 0 1 0.13,0.3 v 0.57 a 0.34,0.34 0 0 1 -0.13,0.28 0.39,0.39 0 0 1 -0.28,0.11 h -3.37 v 3.74 h 2.9 a 0.48,0.48 0 0 1 0.28,0.1 0.39,0.39 0 0 1 0.13,0.29 v 0.58 a 0.34,0.34 0 0 1 -0.13,0.27 0.39,0.39 0 0 1 -0.28,0.12 h -2.9 v 4.15 h 3.46 a 0.4,0.4 0 0 1 0.28,0.1 0.32,0.32 0 0 1 0.13,0.28 z"
     id="path463"
     style="fill:#ffffff;fill-opacity:1" />
  <path
     class="cls-1"
     d="m 246.00081,52.436825 a 0.28,0.28 0 0 1 0,0.28 0.29,0.29 0 0 1 -0.23,0.12 h -0.77 a 0.36,0.36 0 0 1 -0.27,-0.12 1.12,1.12 0 0 1 -0.16,-0.28 l -2.33,-5.53 -0.81,1.45 v 4 a 0.37,0.37 0 0 1 -0.11,0.28 0.43,0.43 0 0 1 -0.28,0.11 h -0.57 a 0.34,0.34 0 0 1 -0.27,-0.12 0.36,0.36 0 0 1 -0.12,-0.27 v -11.08 a 0.36,0.36 0 0 1 0.12,-0.28 0.38,0.38 0 0 1 0.27,-0.12 h 0.57 a 0.39,0.39 0 0 1 0.39,0.4 v 4.84 l 2.9,-5 a 1.84,1.84 0 0 1 0.17,-0.22 0.42,0.42 0 0 1 0.27,-0.07 h 0.88 a 0.3,0.3 0 0 1 0.16,0.05 0.16,0.16 0 0 1 0.08,0.13 0.37,0.37 0 0 1 -0.06,0.21 l -2.65,4.44 z"
     id="path465"
     style="fill:#ffffff;fill-opacity:1" />
</svg>
